<svg width="1216" height="440" viewBox="0 0 1216 440" fill="none" xmlns="http://www.w3.org/2000/svg">
<rect width="1216" height="440" rx="12" fill="url(#paint0_linear_1_491)"/>
<g style="mix-blend-mode:soft-light" opacity="0.6">
<path fill-rule="evenodd" clip-rule="evenodd" d="M108.486 27H23V112.486C70.2126 112.486 108.486 74.2126 108.486 27ZM108.486 126.12H23V211.606H108.486V126.12ZM23 310.951C23 263.738 61.2734 225.465 108.486 225.465V310.951H23ZM65.743 324.584C42.1367 324.584 23 343.721 23 367.327C23 390.933 42.1367 410.07 65.743 410.07C89.3493 410.07 108.486 390.933 108.486 367.327C108.486 343.721 89.3493 324.584 65.743 324.584ZM122.055 69.743C122.055 46.1367 141.192 27 164.798 27C188.405 27 207.541 46.1367 207.541 69.743C207.541 93.3493 188.405 112.486 164.798 112.486C141.192 112.486 122.055 93.3493 122.055 69.743ZM207.541 126.119C160.329 126.119 122.055 164.393 122.055 211.605H207.541V126.119ZM207.541 225.465C207.541 272.678 169.268 310.951 122.055 310.951V225.465H207.541ZM122.055 410.07C169.268 410.07 207.541 371.797 207.541 324.584H122.055V410.07ZM221.111 69.743C221.111 46.1367 240.247 27 263.854 27H306.597V112.486H263.854C240.247 112.486 221.111 93.3493 221.111 69.743ZM263.853 126.119C240.247 126.119 221.11 145.256 221.11 168.862C221.11 192.469 240.247 211.605 263.853 211.605C287.46 211.605 306.596 192.469 306.596 168.862C306.596 145.256 287.46 126.119 263.853 126.119ZM306.596 225.465V310.951H221.11V225.465H306.596ZM263.853 324.584H221.11V410.07H263.853C287.46 410.07 306.596 390.933 306.596 367.327C306.596 343.721 287.46 324.584 263.853 324.584ZM320.166 27H405.652V112.486H320.166V27ZM405.652 126.119H320.166C320.166 173.332 358.44 211.605 405.652 211.605V126.119ZM320.166 225.239H405.652C405.652 272.451 367.379 310.725 320.166 310.725V225.239ZM461.964 27H419.221V112.486H461.964C485.571 112.486 504.707 93.3493 504.707 69.743C504.707 46.1367 485.571 27 461.964 27ZM419.221 168.862C419.221 145.256 438.358 126.119 461.964 126.119C485.571 126.119 504.707 145.256 504.707 168.862C504.707 192.469 485.571 211.605 461.964 211.605C438.358 211.605 419.221 192.469 419.221 168.862ZM461.964 225.465C438.358 225.465 419.221 244.602 419.221 268.208C419.221 291.814 438.358 310.951 461.964 310.951C485.571 310.951 504.707 291.814 504.707 268.208C504.707 244.602 485.571 225.465 461.964 225.465Z" fill="url(#paint1_linear_1_491)"/>
</g>
<defs>
<linearGradient id="paint0_linear_1_491" x1="-148.103" y1="336.962" x2="706.963" y2="-717.002" gradientUnits="userSpaceOnUse">
<stop stop-color="#623CEA"/>
<stop offset="1" stop-color="#A38AFD"/>
</linearGradient>
<linearGradient id="paint1_linear_1_491" x1="-284.416" y1="-212.315" x2="461.964" y2="310.823" gradientUnits="userSpaceOnUse">
<stop stop-color="white"/>
<stop offset="1" stop-color="white" stop-opacity="0"/>
</linearGradient>
</defs>
</svg>
