<svg width="124" height="88" viewBox="0 0 124 88" fill="none" xmlns="http://www.w3.org/2000/svg">
<rect x="0.000244141" width="124" height="88" rx="12" fill="#7683F6"/>
<path opacity="0.3" d="M26.9 20C27.4523 20 27.9 20.4477 27.9 21C27.9 21.5523 27.4523 22 26.9 22H22C20.8954 22 20 22.8954 20 24V36C20 37.1046 20.8954 38 22 38H34C35.1046 38 36 37.1046 36 36V34C36 33.4477 36.4477 33 37 33C37.5523 33 38 33.4477 38 34V36C38 38.2091 36.2091 40 34 40H22C19.7909 40 18 38.2091 18 36V24C18 21.7909 19.7909 20 22 20H26.9Z" fill="white"/>
<path d="M23.0046 31.8973C23.0046 31.1346 22.8411 28.1246 25.2155 25.7366C26.8136 24.1294 29.2053 23.8507 32.0654 23.7235V19.8379C32.0654 19.1871 32.8374 18.8452 33.3194 19.2824L39.8275 25.1868C40.1534 25.4824 40.156 25.9936 39.8332 26.2925L33.3251 32.3198C32.8449 32.7644 32.0654 32.4239 32.0654 31.7695V27.9076C30.2495 27.9575 28.9559 28.073 27.7806 28.4469C25.509 29.1696 24.1611 32.2685 23.7976 33.2124C23.7349 33.3752 23.5797 33.4863 23.4053 33.4863C23.1814 33.4863 23.0001 33.305 23.0008 33.0811C23.0021 32.6691 23.0046 32.1955 23.0046 31.8973Z" fill="white"/>
<path d="M28.444 62C28.0661 59.9119 26.3957 58.679 24.3474 58.679C21.7423 58.679 19.853 60.6875 19.853 63.9091C19.853 67.1307 21.7423 69.1392 24.3474 69.1392C26.3957 69.1392 28.0661 67.9062 28.444 65.8182H27.211C26.9127 67.2301 25.6996 67.9858 24.3474 67.9858C22.4979 67.9858 21.0462 66.554 21.0462 63.9091C21.0462 61.2642 22.4979 59.8324 24.3474 59.8324C25.6996 59.8324 26.9127 60.5881 27.211 62H28.444ZM33.3795 69.1591C35.4477 69.1591 36.8397 67.5881 36.8397 65.2216C36.8397 62.8352 35.4477 61.2642 33.3795 61.2642C31.3113 61.2642 29.9193 62.8352 29.9193 65.2216C29.9193 67.5881 31.3113 69.1591 33.3795 69.1591ZM33.3795 68.1051C31.8085 68.1051 31.0926 66.7528 31.0926 65.2216C31.0926 63.6903 31.8085 62.3182 33.3795 62.3182C34.9505 62.3182 35.6664 63.6903 35.6664 65.2216C35.6664 66.7528 34.9505 68.1051 33.3795 68.1051ZM38.6307 69H39.804V64.2273C39.804 63.1087 40.6194 62.3182 41.5342 62.3182C42.4241 62.3182 43.0455 62.8999 43.0455 63.7699V69H44.2387V64.0284C44.2387 63.044 44.8552 62.3182 45.929 62.3182C46.7643 62.3182 47.4802 62.7607 47.4802 63.8892V69H48.6535V63.8892C48.6535 62.0945 47.689 61.2642 46.3268 61.2642C45.233 61.2642 44.4326 61.7663 44.0398 62.5568H43.9603C43.5825 61.7415 42.9163 61.2642 41.912 61.2642C40.9177 61.2642 40.1819 61.7415 39.8637 62.5568H39.7643V61.3636H38.6307V69ZM50.7987 71.8636H51.972V67.8267H52.0714C52.33 68.2443 52.8271 69.1591 54.2987 69.1591C56.2078 69.1591 57.5402 67.6278 57.5402 65.2017C57.5402 62.7955 56.2078 61.2642 54.2788 61.2642C52.7874 61.2642 52.33 62.179 52.0714 62.5767H51.9322V61.3636H50.7987V71.8636ZM51.9521 65.1818C51.9521 63.4716 52.7078 62.3182 54.1396 62.3182C55.6311 62.3182 56.3669 63.571 56.3669 65.1818C56.3669 66.8125 55.6112 68.1051 54.1396 68.1051C52.7277 68.1051 51.9521 66.9119 51.9521 65.1818ZM61.5771 69.179C62.9095 69.179 63.6055 68.4631 63.8442 67.9659H63.9038V69H65.0771V63.9688C65.0771 61.5426 63.2277 61.2642 62.2533 61.2642C61.0999 61.2642 59.7874 61.6619 59.1908 63.054L60.3044 63.4517C60.5629 62.8949 61.1744 62.2983 62.293 62.2983C63.3719 62.2983 63.9038 62.87 63.9038 63.8494V63.8892C63.9038 64.456 63.3271 64.4062 61.9351 64.5852C60.5182 64.7692 58.972 65.0824 58.972 66.8324C58.972 68.3239 60.1254 69.179 61.5771 69.179ZM61.7561 68.125C60.8214 68.125 60.1453 67.7074 60.1453 66.892C60.1453 65.9972 60.9606 65.7188 61.8754 65.5994C62.3726 65.5398 63.705 65.4006 63.9038 65.1619V66.2358C63.9038 67.1903 63.1481 68.125 61.7561 68.125ZM67.2186 69H68.3919V64.1676C68.3919 63.1335 69.2073 62.3778 70.3209 62.3778C70.6341 62.3778 70.9573 62.4375 71.0368 62.4574V61.2642C70.9026 61.2543 70.5943 61.2443 70.4203 61.2443C69.5056 61.2443 68.7101 61.7614 68.4317 62.517H68.3522V61.3636H67.2186V69ZM76.2272 61.3636H74.5965V59.5341H73.4232V61.3636H72.2698V62.358H73.4232V67.1307C73.4232 68.4631 74.497 69.0994 75.4914 69.0994C75.9289 69.0994 76.2073 69.0199 76.3664 68.9602L76.1277 67.9062C76.0283 67.9261 75.8692 67.9659 75.6107 67.9659C75.0936 67.9659 74.5965 67.8068 74.5965 66.8125V62.358H76.2272V61.3636ZM77.9921 69H79.1654V61.3636H77.9921V69ZM78.5887 60.0909C79.0461 60.0909 79.4239 59.733 79.4239 59.2955C79.4239 58.858 79.0461 58.5 78.5887 58.5C78.1313 58.5 77.7534 58.858 77.7534 59.2955C77.7534 59.733 78.1313 60.0909 78.5887 60.0909ZM82.4876 58.8182H81.3143V69H82.4876V58.8182ZM85.8099 64.4062C85.8099 63.0739 86.66 62.3182 87.8184 62.3182C88.9221 62.3182 89.5883 63.0142 89.5883 64.2273V69H90.7616V64.1477C90.7616 62.1839 89.7176 61.2642 88.1565 61.2642C86.9534 61.2642 86.2673 61.7663 85.9093 62.5568H85.8099V58.8182H84.6366V69H85.8099V64.4062ZM96.1098 69.1591C97.6609 69.1591 98.7945 68.3835 99.1524 67.2301L98.0189 66.9119C97.7206 67.7074 97.0295 68.1051 96.1098 68.1051C94.7327 68.1051 93.7831 67.2152 93.7284 65.5795H99.2717V65.0824C99.2717 62.2386 97.5814 61.2642 95.9905 61.2642C93.9223 61.2642 92.5501 62.8949 92.5501 65.2415C92.5501 67.5881 93.9024 69.1591 96.1098 69.1591ZM93.7284 64.5653C93.808 63.3771 94.6481 62.3182 95.9905 62.3182C97.2632 62.3182 98.0785 63.2727 98.0785 64.5653H93.7284Z" fill="white"/>
</svg>
