<svg width="174" height="138" viewBox="0 0 174 138" fill="none" xmlns="http://www.w3.org/2000/svg">
<g filter="url(#filter0_d_1_703)">
<rect x="25.0002" y="15" width="124" height="88" rx="12" fill="white"/>
</g>
<path fill-rule="evenodd" clip-rule="evenodd" d="M59.4853 50.5963L66.5174 39.9919C66.7936 39.5753 66.6817 39.0125 66.2673 38.7347C66.1191 38.6355 65.9451 38.5825 65.7671 38.5825H60.2379V31.9066C60.2379 31.4059 59.8342 31 59.3362 31C59.0347 31 58.7531 31.1515 58.5858 31.4037L51.5538 42.0081C51.2775 42.4247 51.3895 42.9875 51.8039 43.2653C51.952 43.3645 52.126 43.4175 52.3041 43.4175H57.8332V50.0934C57.8332 50.5941 58.237 51 58.735 51C59.0365 51 59.3181 50.8485 59.4853 50.5963Z" fill="#9CA5FB"/>
<path opacity="0.4" fill-rule="evenodd" clip-rule="evenodd" d="M45.2085 32.5387H51.2202C52.2163 32.5387 53.0237 33.3505 53.0237 34.3518C53.0237 35.3532 52.2163 36.165 51.2202 36.165H45.2085C44.2124 36.165 43.4049 35.3532 43.4049 34.3518C43.4049 33.3505 44.2124 32.5387 45.2085 32.5387ZM45.2085 47.0439H51.2202C52.2163 47.0439 53.0237 47.8556 53.0237 48.857C53.0237 49.8584 52.2163 50.6701 51.2202 50.6701H45.2085C44.2124 50.6701 43.4049 49.8584 43.4049 48.857C43.4049 47.8556 44.2124 47.0439 45.2085 47.0439ZM42.8038 39.7913H47.6132C48.6092 39.7913 49.4167 40.6031 49.4167 41.6044C49.4167 42.6058 48.6092 43.4176 47.6132 43.4176H42.8038C41.8077 43.4176 41.0002 42.6058 41.0002 41.6044C41.0002 40.6031 41.8077 39.7913 42.8038 39.7913Z" fill="#9CA5FB"/>
<path d="M43.0268 84L44.0509 81.1165H48.1674L49.1916 84H50.4842L46.7455 73.8182H45.4728L41.7342 84H43.0268ZM44.4387 80.0227L46.0694 75.429H46.1489L47.7796 80.0227H44.4387ZM54.7535 76.3636H53.1228V74.5341H51.9496V76.3636H50.7961V77.358H51.9496V82.1307C51.9496 83.4631 53.0234 84.0994 54.0177 84.0994C54.4552 84.0994 54.7336 84.0199 54.8927 83.9602L54.6541 82.9062C54.5547 82.9261 54.3956 82.9659 54.1371 82.9659C53.62 82.9659 53.1228 82.8068 53.1228 81.8125V77.358H54.7535V76.3636ZM56.5184 84H57.6917V76.3636H56.5184V84ZM57.115 75.0909C57.5724 75.0909 57.9503 74.733 57.9503 74.2955C57.9503 73.858 57.5724 73.5 57.115 73.5C56.6576 73.5 56.2798 73.858 56.2798 74.2955C56.2798 74.733 56.6576 75.0909 57.115 75.0909ZM66.085 76.3636H64.8123L62.7043 82.4489H62.6248L60.5168 76.3636H59.2441L62.068 84H63.2612L66.085 76.3636ZM67.6337 84H68.807V76.3636H67.6337V84ZM68.2303 75.0909C68.6877 75.0909 69.0655 74.733 69.0655 74.2955C69.0655 73.858 68.6877 73.5 68.2303 73.5C67.7729 73.5 67.395 73.858 67.395 74.2955C67.395 74.733 67.7729 75.0909 68.2303 75.0909ZM73.8395 84.1591C75.3111 84.1591 75.8082 83.2443 76.0667 82.8267H76.2059V84H77.3395V73.8182H76.1662V77.5767H76.0667C75.8082 77.179 75.3508 76.2642 73.8594 76.2642C71.9304 76.2642 70.598 77.7955 70.598 80.2017C70.598 82.6278 71.9304 84.1591 73.8395 84.1591ZM73.9986 83.1051C72.527 83.1051 71.7713 81.8125 71.7713 80.1818C71.7713 78.571 72.5071 77.3182 73.9986 77.3182C75.4304 77.3182 76.1861 78.4716 76.1861 80.1818C76.1861 81.9119 75.4105 83.1051 73.9986 83.1051ZM81.8984 84.179C83.2308 84.179 83.9268 83.4631 84.1655 82.9659H84.2251V84H85.3984V78.9688C85.3984 76.5426 83.549 76.2642 82.5746 76.2642C81.4211 76.2642 80.1086 76.6619 79.5121 78.054L80.6257 78.4517C80.8842 77.8949 81.4957 77.2983 82.6143 77.2983C83.6932 77.2983 84.2251 77.87 84.2251 78.8494V78.8892C84.2251 79.456 83.6484 79.4062 82.2564 79.5852C80.8395 79.7692 79.2933 80.0824 79.2933 81.8324C79.2933 83.3239 80.4467 84.179 81.8984 84.179ZM82.0774 83.125C81.1427 83.125 80.4666 82.7074 80.4666 81.892C80.4666 80.9972 81.2819 80.7188 82.1967 80.5994C82.6939 80.5398 84.0263 80.4006 84.2251 80.1619V81.2358C84.2251 82.1903 83.4694 83.125 82.0774 83.125ZM90.4235 84.1591C91.895 84.1591 92.3922 83.2443 92.6507 82.8267H92.7899V84H93.9235V73.8182H92.7502V77.5767H92.6507C92.3922 77.179 91.9348 76.2642 90.4433 76.2642C88.5144 76.2642 87.182 77.7955 87.182 80.2017C87.182 82.6278 88.5144 84.1591 90.4235 84.1591ZM90.5825 83.1051C89.111 83.1051 88.3553 81.8125 88.3553 80.1818C88.3553 78.571 89.0911 77.3182 90.5825 77.3182C92.0144 77.3182 92.77 78.4716 92.77 80.1818C92.77 81.9119 91.9945 83.1051 90.5825 83.1051ZM99.4369 84.1591C100.988 84.1591 102.122 83.3835 102.48 82.2301L101.346 81.9119C101.048 82.7074 100.357 83.1051 99.4369 83.1051C98.0598 83.1051 97.1102 82.2152 97.0556 80.5795H102.599V80.0824C102.599 77.2386 100.909 76.2642 99.3176 76.2642C97.2494 76.2642 95.8773 77.8949 95.8773 80.2415C95.8773 82.5881 97.2296 84.1591 99.4369 84.1591ZM97.0556 79.5653C97.1351 78.3771 97.9753 77.3182 99.3176 77.3182C100.59 77.3182 101.406 78.2727 101.406 79.5653H97.0556ZM109.793 78.0739C109.425 76.9901 108.6 76.2642 107.088 76.2642C105.477 76.2642 104.284 77.179 104.284 78.4716C104.284 79.5256 104.911 80.2315 106.313 80.5597L107.585 80.858C108.356 81.0369 108.719 81.4048 108.719 81.9318C108.719 82.5881 108.023 83.125 106.929 83.125C105.97 83.125 105.368 82.7124 105.159 81.892L104.046 82.1705C104.319 83.468 105.388 84.1591 106.949 84.1591C108.724 84.1591 109.932 83.1896 109.932 81.8722C109.932 80.8082 109.266 80.1371 107.904 79.804L106.77 79.5256C105.865 79.3018 105.458 78.9986 105.458 78.4119C105.458 77.7557 106.154 77.2784 107.088 77.2784C108.112 77.2784 108.535 77.8452 108.739 78.3722L109.793 78.0739Z" fill="#9CA5FB"/>
<defs>
<filter id="filter0_d_1_703" x="0.000244141" y="0" width="174" height="138" filterUnits="userSpaceOnUse" color-interpolation-filters="sRGB">
<feFlood flood-opacity="0" result="BackgroundImageFix"/>
<feColorMatrix in="SourceAlpha" type="matrix" values="0 0 0 0 0 0 0 0 0 0 0 0 0 0 0 0 0 0 127 0" result="hardAlpha"/>
<feMorphology radius="5" operator="erode" in="SourceAlpha" result="effect1_dropShadow_1_703"/>
<feOffset dy="10"/>
<feGaussianBlur stdDeviation="15"/>
<feColorMatrix type="matrix" values="0 0 0 0 0.81 0 0 0 0 0.819 0 0 0 0 0.9 0 0 0 0.45 0"/>
<feBlend mode="normal" in2="BackgroundImageFix" result="effect1_dropShadow_1_703"/>
<feBlend mode="normal" in="SourceGraphic" in2="effect1_dropShadow_1_703" result="shape"/>
</filter>
</defs>
</svg>
