<svg width="16" height="23" viewBox="0 0 16 23" fill="none" xmlns="http://www.w3.org/2000/svg">
<path fill-rule="evenodd" clip-rule="evenodd" d="M12.1111 21.457H3.22222C1.99444 21.457 1 20.4626 1 19.2348V3.67925C1 2.45148 1.99444 1.45703 3.22222 1.45703H12.1111C13.3389 1.45703 14.3333 2.45148 14.3333 3.67925V19.2348C14.3333 20.4626 13.3389 21.457 12.1111 21.457Z" stroke="white" stroke-width="1.5" stroke-linecap="round" stroke-linejoin="round"/>
<path d="M7.66553 17.2905C7.5122 17.2905 7.38775 17.4149 7.38887 17.5683C7.38887 17.7216 7.51331 17.846 7.66664 17.846C7.81998 17.846 7.94442 17.7216 7.94442 17.5683C7.94442 17.4149 7.81998 17.2905 7.66553 17.2905" stroke="white" stroke-width="1.5" stroke-linecap="round" stroke-linejoin="round"/>
<path d="M6.27783 4.79042H9.05561" stroke="white" stroke-width="1.5" stroke-linecap="round" stroke-linejoin="round"/>
</svg>
