<svg width="174" height="138" viewBox="0 0 174 138" fill="none" xmlns="http://www.w3.org/2000/svg">
<g filter="url(#filter0_d_1_281)">
<rect x="25.0002" y="15" width="124" height="88" rx="12" fill="white"/>
</g>
<path opacity="0.3" d="M51.9002 33C52.4525 33 52.9002 33.4477 52.9002 34C52.9002 34.5523 52.4525 35 51.9002 35H47.0002C45.8957 35 45.0002 35.8954 45.0002 37V49C45.0002 50.1046 45.8957 51 47.0002 51H59.0002C60.1048 51 61.0002 50.1046 61.0002 49V47C61.0002 46.4477 61.448 46 62.0002 46C62.5525 46 63.0002 46.4477 63.0002 47V49C63.0002 51.2091 61.2094 53 59.0002 53H47.0002C44.7911 53 43.0002 51.2091 43.0002 49V37C43.0002 34.7909 44.7911 33 47.0002 33H51.9002Z" fill="#9CA5FB"/>
<path d="M48.0048 44.8973C48.0048 44.1346 47.8414 41.1246 50.2158 38.7366C51.8138 37.1294 54.2055 36.8507 57.0657 36.7235V32.8379C57.0657 32.1871 57.8377 31.8452 58.3196 32.2824L64.8278 38.1868C65.1536 38.4824 65.1562 38.9936 64.8335 39.2925L58.3253 45.3198C57.8452 45.7644 57.0657 45.4239 57.0657 44.7695V40.9076C55.2497 40.9575 53.9561 41.073 52.7809 41.4469C50.5093 42.1696 49.1614 45.2685 48.7979 46.2124C48.7352 46.3752 48.5799 46.4863 48.4055 46.4863C48.1817 46.4863 48.0003 46.305 48.001 46.0811C48.0023 45.6691 48.0048 45.1955 48.0048 44.8973Z" fill="#9CA5FB"/>
<path d="M53.444 77C53.0661 74.9119 51.3957 73.679 49.3474 73.679C46.7423 73.679 44.853 75.6875 44.853 78.9091C44.853 82.1307 46.7423 84.1392 49.3474 84.1392C51.3957 84.1392 53.0661 82.9062 53.444 80.8182H52.211C51.9127 82.2301 50.6996 82.9858 49.3474 82.9858C47.4979 82.9858 46.0462 81.554 46.0462 78.9091C46.0462 76.2642 47.4979 74.8324 49.3474 74.8324C50.6996 74.8324 51.9127 75.5881 52.211 77H53.444ZM58.3795 84.1591C60.4477 84.1591 61.8397 82.5881 61.8397 80.2216C61.8397 77.8352 60.4477 76.2642 58.3795 76.2642C56.3113 76.2642 54.9193 77.8352 54.9193 80.2216C54.9193 82.5881 56.3113 84.1591 58.3795 84.1591ZM58.3795 83.1051C56.8085 83.1051 56.0926 81.7528 56.0926 80.2216C56.0926 78.6903 56.8085 77.3182 58.3795 77.3182C59.9505 77.3182 60.6664 78.6903 60.6664 80.2216C60.6664 81.7528 59.9505 83.1051 58.3795 83.1051ZM63.6307 84H64.804V79.2273C64.804 78.1087 65.6194 77.3182 66.5342 77.3182C67.4241 77.3182 68.0455 77.8999 68.0455 78.7699V84H69.2387V79.0284C69.2387 78.044 69.8552 77.3182 70.929 77.3182C71.7643 77.3182 72.4802 77.7607 72.4802 78.8892V84H73.6535V78.8892C73.6535 77.0945 72.689 76.2642 71.3268 76.2642C70.233 76.2642 69.4326 76.7663 69.0398 77.5568H68.9603C68.5825 76.7415 67.9163 76.2642 66.912 76.2642C65.9177 76.2642 65.1819 76.7415 64.8637 77.5568H64.7643V76.3636H63.6307V84ZM75.7987 86.8636H76.972V82.8267H77.0714C77.33 83.2443 77.8271 84.1591 79.2987 84.1591C81.2078 84.1591 82.5402 82.6278 82.5402 80.2017C82.5402 77.7955 81.2078 76.2642 79.2788 76.2642C77.7874 76.2642 77.33 77.179 77.0714 77.5767H76.9322V76.3636H75.7987V86.8636ZM76.9521 80.1818C76.9521 78.4716 77.7078 77.3182 79.1396 77.3182C80.6311 77.3182 81.3669 78.571 81.3669 80.1818C81.3669 81.8125 80.6112 83.1051 79.1396 83.1051C77.7277 83.1051 76.9521 81.9119 76.9521 80.1818ZM86.5771 84.179C87.9095 84.179 88.6055 83.4631 88.8442 82.9659H88.9038V84H90.0771V78.9688C90.0771 76.5426 88.2277 76.2642 87.2533 76.2642C86.0999 76.2642 84.7874 76.6619 84.1908 78.054L85.3044 78.4517C85.5629 77.8949 86.1744 77.2983 87.293 77.2983C88.3719 77.2983 88.9038 77.87 88.9038 78.8494V78.8892C88.9038 79.456 88.3271 79.4062 86.9351 79.5852C85.5182 79.7692 83.972 80.0824 83.972 81.8324C83.972 83.3239 85.1254 84.179 86.5771 84.179ZM86.7561 83.125C85.8214 83.125 85.1453 82.7074 85.1453 81.892C85.1453 80.9972 85.9606 80.7188 86.8754 80.5994C87.3726 80.5398 88.705 80.4006 88.9038 80.1619V81.2358C88.9038 82.1903 88.1481 83.125 86.7561 83.125ZM92.2186 84H93.3919V79.1676C93.3919 78.1335 94.2073 77.3778 95.3209 77.3778C95.6341 77.3778 95.9573 77.4375 96.0368 77.4574V76.2642C95.9026 76.2543 95.5943 76.2443 95.4203 76.2443C94.5056 76.2443 93.7101 76.7614 93.4317 77.517H93.3522V76.3636H92.2186V84ZM101.227 76.3636H99.5965V74.5341H98.4232V76.3636H97.2698V77.358H98.4232V82.1307C98.4232 83.4631 99.497 84.0994 100.491 84.0994C100.929 84.0994 101.207 84.0199 101.366 83.9602L101.128 82.9062C101.028 82.9261 100.869 82.9659 100.611 82.9659C100.094 82.9659 99.5965 82.8068 99.5965 81.8125V77.358H101.227V76.3636ZM102.992 84H104.165V76.3636H102.992V84ZM103.589 75.0909C104.046 75.0909 104.424 74.733 104.424 74.2955C104.424 73.858 104.046 73.5 103.589 73.5C103.131 73.5 102.753 73.858 102.753 74.2955C102.753 74.733 103.131 75.0909 103.589 75.0909ZM107.488 73.8182H106.314V84H107.488V73.8182ZM110.81 79.4062C110.81 78.0739 111.66 77.3182 112.818 77.3182C113.922 77.3182 114.588 78.0142 114.588 79.2273V84H115.762V79.1477C115.762 77.1839 114.718 76.2642 113.156 76.2642C111.953 76.2642 111.267 76.7663 110.909 77.5568H110.81V73.8182H109.637V84H110.81V79.4062ZM121.11 84.1591C122.661 84.1591 123.794 83.3835 124.152 82.2301L123.019 81.9119C122.721 82.7074 122.03 83.1051 121.11 83.1051C119.733 83.1051 118.783 82.2152 118.728 80.5795H124.272V80.0824C124.272 77.2386 122.581 76.2642 120.99 76.2642C118.922 76.2642 117.55 77.8949 117.55 80.2415C117.55 82.5881 118.902 84.1591 121.11 84.1591ZM118.728 79.5653C118.808 78.3771 119.648 77.3182 120.99 77.3182C122.263 77.3182 123.079 78.2727 123.079 79.5653H118.728Z" fill="#9CA5FB"/>
<defs>
<filter id="filter0_d_1_281" x="0.000244141" y="0" width="174" height="138" filterUnits="userSpaceOnUse" color-interpolation-filters="sRGB">
<feFlood flood-opacity="0" result="BackgroundImageFix"/>
<feColorMatrix in="SourceAlpha" type="matrix" values="0 0 0 0 0 0 0 0 0 0 0 0 0 0 0 0 0 0 127 0" result="hardAlpha"/>
<feMorphology radius="5" operator="erode" in="SourceAlpha" result="effect1_dropShadow_1_281"/>
<feOffset dy="10"/>
<feGaussianBlur stdDeviation="15"/>
<feColorMatrix type="matrix" values="0 0 0 0 0.81 0 0 0 0 0.819 0 0 0 0 0.9 0 0 0 0.45 0"/>
<feBlend mode="normal" in2="BackgroundImageFix" result="effect1_dropShadow_1_281"/>
<feBlend mode="normal" in="SourceGraphic" in2="effect1_dropShadow_1_281" result="shape"/>
</filter>
</defs>
</svg>
