<svg width="124" height="88" viewBox="0 0 124 88" fill="none" xmlns="http://www.w3.org/2000/svg">
<rect width="124" height="88" rx="12" fill="#7683F6"/>
<path opacity="0.4" d="M29.7712 26.1243C29.8115 26.1243 29.8524 26.1198 29.8934 26.1105C32.523 25.5123 33.6479 23.8004 34.1286 22.4696C34.6403 21.0528 34.5368 19.7805 34.5321 19.7271C34.5063 19.431 34.264 19.2041 33.9737 19.2041H31.2005C30.8655 19.2041 30.5949 19.4851 30.623 19.8268C30.6472 20.121 30.8881 20.352 31.1817 20.352H33.1757C33.3068 20.352 33.4091 20.4673 33.3969 20.6009C33.3593 21.014 33.2692 21.5516 33.0632 22.1088C32.4994 23.6337 31.3511 24.603 29.6501 24.99C29.3478 25.0587 29.1572 25.3653 29.2244 25.6747C29.2825 25.9422 29.5142 26.1243 29.7712 26.1243Z" fill="white"/>
<path opacity="0.4" d="M20.7727 26.1243C20.7324 26.1243 20.6916 26.1198 20.6506 26.1105C18.0209 25.5123 16.896 23.8004 16.4154 22.4696C15.9036 21.0528 16.0072 19.7805 16.0118 19.7271C16.0376 19.431 16.2799 19.2041 16.5703 19.2041H19.3434C19.6784 19.2041 19.949 19.4851 19.9209 19.8268C19.8967 20.121 19.6559 20.352 19.3623 20.352H17.3682C17.2371 20.352 17.1348 20.4673 17.147 20.6009C17.1846 21.014 17.2747 21.5516 17.4808 22.1088C18.0445 23.6337 19.1928 24.603 20.8939 24.99C21.1961 25.0587 21.3867 25.3653 21.3195 25.6747C21.2614 25.9422 21.0297 26.1243 20.7727 26.1243Z" fill="white"/>
<path d="M26.9322 29.8346L27.5036 28.869H23.0391L23.6104 29.8346C24.0092 30.5085 24.2237 31.3169 24.2237 32.1462C24.2237 32.6527 24.1436 33.1547 23.9878 33.6247L23.6314 34.7H26.9113L26.5548 33.6247C26.399 33.1547 26.319 32.6527 26.319 32.1462C26.319 31.3169 26.5335 30.5085 26.9322 29.8346Z" fill="white"/>
<path d="M29.7992 34.7H20.7438C20.6027 34.7 20.4883 34.5829 20.4883 34.4384V33.014C20.4883 32.8696 20.6027 32.7524 20.7438 32.7524H29.7992C29.9403 32.7524 30.0547 32.8696 30.0547 33.014V34.4384C30.0547 34.5829 29.9403 34.7 29.7992 34.7Z" fill="white"/>
<path d="M19.0952 17C19.0952 16.4477 19.5429 16 20.0952 16H30.8349C31.3872 16 31.8349 16.4477 31.8349 17V23.4008C31.8349 26.6745 29.1811 29.3283 25.9075 29.3283H25.0226C21.749 29.3283 19.0952 26.6745 19.0952 23.4008V17Z" fill="white"/>
<rect x="17.8364" y="16" width="14.8702" height="1.60251" rx="0.5" fill="white"/>
<path d="M28.766 62C28.3881 59.9119 26.7177 58.679 24.6694 58.679C22.0643 58.679 20.1751 60.6875 20.1751 63.9091C20.1751 67.1307 22.0643 69.1392 24.6694 69.1392C26.7177 69.1392 28.3881 67.9062 28.766 65.8182H27.533C27.2347 67.2301 26.0217 67.9858 24.6694 67.9858C22.82 67.9858 21.3683 66.554 21.3683 63.9091C21.3683 61.2642 22.82 59.8324 24.6694 59.8324C26.0217 59.8324 27.2347 60.5881 27.533 62H28.766ZM33.7015 69.1591C35.7697 69.1591 37.1618 67.5881 37.1618 65.2216C37.1618 62.8352 35.7697 61.2642 33.7015 61.2642C31.6333 61.2642 30.2413 62.8352 30.2413 65.2216C30.2413 67.5881 31.6333 69.1591 33.7015 69.1591ZM33.7015 68.1051C32.1305 68.1051 31.4146 66.7528 31.4146 65.2216C31.4146 63.6903 32.1305 62.3182 33.7015 62.3182C35.2725 62.3182 35.9885 63.6903 35.9885 65.2216C35.9885 66.7528 35.2725 68.1051 33.7015 68.1051ZM40.1261 64.4062C40.1261 63.0739 40.9513 62.3182 42.0749 62.3182C43.1637 62.3182 43.8249 63.0291 43.8249 64.2273V69H44.9982V64.1477C44.9982 62.1989 43.9592 61.2642 42.413 61.2642C41.2596 61.2642 40.5437 61.7812 40.1857 62.5568H40.0863V61.3636H38.9528V69H40.1261V64.4062ZM53.5257 71.8636V61.3636H52.3922V62.5767H52.253C51.9945 62.179 51.5371 61.2642 50.0456 61.2642C48.1167 61.2642 46.7843 62.7955 46.7843 65.2017C46.7843 67.6278 48.1167 69.1591 50.0257 69.1591C51.4973 69.1591 51.9945 68.2443 52.253 67.8267H52.3525V71.8636H53.5257ZM52.3723 65.1818C52.3723 66.9119 51.5968 68.1051 50.1848 68.1051C48.7132 68.1051 47.9576 66.8125 47.9576 65.1818C47.9576 63.571 48.6934 62.3182 50.1848 62.3182C51.6167 62.3182 52.3723 63.4716 52.3723 65.1818ZM60.486 65.8778C60.486 67.3097 59.3922 67.9659 58.5172 67.9659C57.5428 67.9659 56.8468 67.25 56.8468 66.1364V61.3636H55.6735V66.2159C55.6735 68.1648 56.7076 69.0994 58.1394 69.0994C59.2928 69.0994 60.0485 68.483 60.4064 67.7074H60.486V69H61.6593V61.3636H60.486V65.8778ZM63.8082 69H64.9815V61.3636H63.8082V69ZM64.4048 60.0909C64.8622 60.0909 65.2401 59.733 65.2401 59.2955C65.2401 58.858 64.8622 58.5 64.4048 58.5C63.9474 58.5 63.5696 58.858 63.5696 59.2955C63.5696 59.733 63.9474 60.0909 64.4048 60.0909ZM72.5396 63.0739C72.1717 61.9901 71.3464 61.2642 69.835 61.2642C68.2243 61.2642 67.0311 62.179 67.0311 63.4716C67.0311 64.5256 67.6575 65.2315 69.0595 65.5597L70.3322 65.858C71.1028 66.0369 71.4657 66.4048 71.4657 66.9318C71.4657 67.5881 70.7697 68.125 69.676 68.125C68.7164 68.125 68.1149 67.7124 67.9061 66.892L66.7924 67.1705C67.0659 68.468 68.1348 69.1591 69.6958 69.1591C71.4707 69.1591 72.6788 68.1896 72.6788 66.8722C72.6788 65.8082 72.0126 65.1371 70.6504 64.804L69.5169 64.5256C68.612 64.3018 68.2044 63.9986 68.2044 63.4119C68.2044 62.7557 68.9004 62.2784 69.835 62.2784C70.8592 62.2784 71.2818 62.8452 71.4856 63.3722L72.5396 63.0739ZM77.766 61.3636H76.1353V59.5341H74.962V61.3636H73.8086V62.358H74.962V67.1307C74.962 68.4631 76.0359 69.0994 77.0302 69.0994C77.4677 69.0994 77.7461 69.0199 77.9052 68.9602L77.6665 67.9062C77.5671 67.9261 77.408 67.9659 77.1495 67.9659C76.6325 67.9659 76.1353 67.8068 76.1353 66.8125V62.358H77.766V61.3636ZM81.7781 69.179C83.1104 69.179 83.8065 68.4631 84.0451 67.9659H84.1048V69H85.2781V63.9688C85.2781 61.5426 83.4286 61.2642 82.4542 61.2642C81.3008 61.2642 79.9883 61.6619 79.3917 63.054L80.5053 63.4517C80.7638 62.8949 81.3754 62.2983 82.494 62.2983C83.5728 62.2983 84.1048 62.87 84.1048 63.8494V63.8892C84.1048 64.456 83.5281 64.4062 82.136 64.5852C80.7191 64.7692 79.1729 65.0824 79.1729 66.8324C79.1729 68.3239 80.3263 69.179 81.7781 69.179ZM81.957 68.125C81.0224 68.125 80.3462 67.7074 80.3462 66.892C80.3462 65.9972 81.1616 65.7188 82.0763 65.5994C82.5735 65.5398 83.9059 65.4006 84.1048 65.1619V66.2358C84.1048 67.1903 83.3491 68.125 81.957 68.125ZM92.8287 63.0739C92.4608 61.9901 91.6355 61.2642 90.1241 61.2642C88.5133 61.2642 87.3201 62.179 87.3201 63.4716C87.3201 64.5256 87.9466 65.2315 89.3485 65.5597L90.6213 65.858C91.3919 66.0369 91.7548 66.4048 91.7548 66.9318C91.7548 67.5881 91.0588 68.125 89.965 68.125C89.0055 68.125 88.4039 67.7124 88.1951 66.892L87.0815 67.1705C87.3549 68.468 88.4238 69.1591 89.9849 69.1591C91.7598 69.1591 92.9679 68.1896 92.9679 66.8722C92.9679 65.8082 92.3017 65.1371 90.9395 64.804L89.8059 64.5256C88.9011 64.3018 88.4934 63.9986 88.4934 63.4119C88.4934 62.7557 89.1895 62.2784 90.1241 62.2784C91.1483 62.2784 91.5708 62.8452 91.7747 63.3722L92.8287 63.0739Z" fill="white"/>
</svg>
