<svg width="52" height="5" viewBox="0 0 52 5" fill="none" xmlns="http://www.w3.org/2000/svg">
<path d="M35.3566 2.22317L35.3567 2.22315L35.3844 2.19778C35.743 1.86944 36.136 1.50961 36.615 1.24461C37.131 0.959109 37.7205 0.794602 38.4742 0.794602C39.2279 0.794602 39.8174 0.959108 40.3335 1.24462C40.8125 1.50965 41.2055 1.86955 41.5641 2.19794L41.5916 2.22314C41.5916 2.22316 41.5917 2.22317 41.5917 2.22319C42.4103 2.97237 43.1843 3.67168 44.7608 3.67168C46.3377 3.67168 47.1118 2.9723 47.9304 2.22314L47.9304 2.22311L47.9582 2.19763C48.3169 1.86933 48.7099 1.50955 49.1888 1.2446C49.7049 0.959098 50.2945 0.794602 51.0483 0.794602C51.0694 0.794602 51.0866 0.777413 51.0866 0.756297C51.0866 0.73523 51.0693 0.717992 51.0483 0.717992C49.4715 0.717992 48.6973 1.41738 47.8787 2.16654L47.8787 2.16656L47.8509 2.19204C47.4922 2.52034 47.0992 2.88012 46.6203 3.14508C46.1042 3.43058 45.5146 3.59507 44.7608 3.59507C44.0071 3.59507 43.4176 3.43056 42.9016 3.14507C42.4228 2.88013 42.0299 2.52039 41.6714 2.19216L41.6435 2.16665L41.6435 2.16662C40.8249 1.41734 40.0508 0.717992 38.4742 0.717992C36.8976 0.717992 36.1235 1.41734 35.305 2.16662L35.3049 2.16665L35.277 2.19218C34.9185 2.5204 34.5256 2.88014 34.0468 3.14507C33.5308 3.43057 32.9412 3.59507 32.1875 3.59507C31.4339 3.59507 30.8443 3.43056 30.3284 3.14507C29.8494 2.8801 29.4564 2.52029 29.0979 2.192L29.0702 2.16665L29.0702 2.16662C28.2516 1.41732 27.4776 0.717992 25.901 0.717992C24.3245 0.717992 23.5505 1.41733 22.7321 2.16659L22.732 2.16665L22.7041 2.19217C22.3456 2.5204 21.9527 2.88013 21.4739 3.14507C20.9579 3.43056 20.3684 3.59507 19.6147 3.59507C18.8611 3.59507 18.2717 3.4306 17.7558 3.1451C17.2769 2.88008 16.8839 2.5202 16.5254 2.19182L16.4979 2.16663C15.6793 1.4174 14.9054 0.717992 13.3291 0.717992C11.7526 0.717992 10.9785 1.41733 10.1601 2.16659L10.1601 2.16665C10.1508 2.17514 10.1415 2.18365 10.1322 2.19218C9.77368 2.5204 9.38078 2.88013 8.90198 3.14506C8.38601 3.43056 7.79653 3.59507 7.04289 3.59507C6.2892 3.59507 5.69966 3.43057 5.18364 3.14505C4.70462 2.88002 4.31159 2.52011 3.95298 2.19172C3.94379 2.1833 3.93462 2.17491 3.92548 2.16654L35.3566 2.22317ZM35.3566 2.22317C34.5382 2.97232 33.7641 3.67168 32.1875 3.67168M35.3566 2.22317L32.1875 3.67168M32.1875 3.67168C30.6109 3.67168 29.8369 2.97235 29.0183 2.22314M32.1875 3.67168L29.0183 2.22314M29.0183 2.22314L28.9906 2.19779C28.6321 1.86946 28.2391 1.50963 27.7602 1.24463C27.2442 0.959109 26.6547 0.794602 25.901 0.794602C25.1474 0.794602 24.5579 0.959115 24.0419 1.24464C23.563 1.50963 23.1701 1.86947 22.8115 2.19781L22.7838 2.22317C22.7838 2.22318 22.7838 2.22319 22.7838 2.22319C21.9654 2.97233 21.1913 3.67168 19.6147 3.67168C18.0384 3.67168 17.2646 2.97242 16.4461 2.22323C16.4461 2.22321 16.4461 2.22319 16.4461 2.22317L16.4185 2.19796C16.06 1.86958 15.667 1.50968 15.1881 1.24465C14.6722 0.95912 14.0827 0.794602 13.3291 0.794602C12.5755 0.794602 11.986 0.959115 11.47 1.24464C10.9911 1.50963 10.5982 1.86946 10.2396 2.19779L29.0183 2.22314ZM3.84591 2.1978C3.85516 2.20627 3.86438 2.21471 3.87358 2.22314L3.84591 2.1978ZM3.84591 2.1978C3.48736 1.86947 3.09441 1.50963 2.61551 1.24463M3.84591 2.1978L2.61551 1.24463M2.61551 1.24463C2.09951 0.959109 1.50999 0.794602 0.756297 0.794602M2.61551 1.24463L0.756297 0.794602M0.756297 0.794602C0.735153 0.794602 0.717992 0.777411 0.717992 0.756297M0.756297 0.794602L0.717992 0.756297M0.717992 0.756297C0.717992 0.735231 0.735231 0.717992 0.756297 0.717992M0.717992 0.756297L0.756297 0.717992M0.756297 0.717992C2.33278 0.717992 3.10682 1.41731 3.92542 2.16648L0.756297 0.717992ZM10.2119 2.22319C9.39344 2.97234 8.61939 3.67168 7.04289 3.67168C5.46628 3.67168 4.69222 2.97236 3.87364 2.22319L10.2119 2.22319Z" stroke="#FFD569" stroke-width="1.43598"/>
</svg>
