<svg width="55" height="5" viewBox="0 0 55 5" fill="none" xmlns="http://www.w3.org/2000/svg">
<path d="M37.4392 2.87551L37.1017 2.50668L37.1227 2.48741C37.5028 2.13944 37.8943 1.78111 38.3683 1.51885C38.8683 1.24223 39.4421 1.08003 40.1894 1.08003C40.9367 1.08003 41.5105 1.24223 42.0105 1.51885C42.4846 1.78116 42.876 2.13957 43.2562 2.48759L43.277 2.50667C44.139 3.29556 45.0089 4.08537 46.7563 4.08537C48.5041 4.08537 49.3739 3.29553 50.2359 2.50667L50.2359 2.50665L50.2571 2.48726C50.6372 2.13934 51.0287 1.78106 51.5027 1.51884C52.0027 1.24222 52.5766 1.08003 53.324 1.08003C53.4842 1.08003 53.614 0.950165 53.614 0.790013C53.614 0.629938 53.4841 0.5 53.324 0.5C51.5763 0.5 50.7063 1.28984 49.8444 2.0787L49.8444 2.07872L49.8232 2.09811C49.443 2.44603 49.0516 2.80431 48.5776 3.06653C48.0776 3.34315 47.5037 3.50534 46.7563 3.50534C46.0089 3.50534 45.4351 3.34314 44.9352 3.06653C44.4613 2.80433 44.07 2.4461 43.69 2.09827L43.6688 2.07882L43.6688 2.0788C42.8068 1.28981 41.9369 0.5 40.1894 0.5C38.4419 0.5 37.572 1.28981 36.7101 2.0788L36.71 2.07882L36.6888 2.09829C36.3088 2.44612 35.9175 2.80434 35.4436 3.06653C34.9436 3.34314 34.3698 3.50534 33.6224 3.50534C32.8752 3.50534 32.3014 3.34313 31.8014 3.06653C31.3275 2.80429 30.936 2.44599 30.556 2.09809L30.5349 2.07882L30.5349 2.0788C29.6729 1.2898 28.8032 0.5 27.0557 0.5C25.3083 0.5 24.4384 1.28981 23.5766 2.07878L23.5766 2.07882L23.5553 2.09828C23.1754 2.44611 22.784 2.80434 22.3102 3.06653C21.8102 3.34314 21.2364 3.50534 20.4891 3.50534C19.7419 3.50534 19.1682 3.34317 18.6684 3.06656C18.1944 2.8043 17.8031 2.44594 17.423 2.09794L17.4021 2.0788C17.4021 2.07879 17.4021 2.07878 17.4021 2.07876C16.5402 1.28987 15.6705 0.5 13.9233 0.5C12.1759 0.5 11.3061 1.28981 10.4443 2.07878L10.4442 2.07882L10.423 2.09828C10.043 2.44611 9.65164 2.80433 9.17779 3.06652C8.67789 3.34313 8.10412 3.50534 7.35686 3.50534C6.60955 3.50534 6.03572 3.34314 5.53576 3.06651C5.06169 2.80421 4.67023 2.44581 4.29011 2.09779L4.26926 2.0787C4.26925 2.07869 4.26923 2.07867 4.26922 2.07866C3.40725 1.28979 2.53737 0.5 0.790013 0.5C0.629936 0.5 0.5 0.629936 0.5 0.790013C0.5 0.950167 0.629882 1.08003 0.790013 1.08003C1.53733 1.08003 2.11113 1.24223 2.61107 1.51886C3.08501 1.78112 3.47639 2.13944 3.85643 2.48739C3.86345 2.49382 3.87047 2.50025 3.87748 2.50667L37.4392 2.87551ZM37.4392 2.87551L37.1016 2.50669C36.2398 3.29555 35.3699 4.08537 33.6224 4.08537C31.8749 4.08537 31.0052 3.29559 30.1432 2.50671C30.1432 2.50669 30.1432 2.50668 30.1432 2.50667L30.1221 2.4874C29.7421 2.13945 29.3507 1.78112 28.8768 1.51886C28.3768 1.24223 27.803 1.08003 27.0557 1.08003C26.3084 1.08003 25.7347 1.24223 25.2348 1.51887C24.7608 1.78112 24.3695 2.13944 23.9894 2.48739L23.9683 2.50669C23.1065 3.29555 22.2366 4.08537 20.4891 4.08537C18.7419 4.08537 17.8723 3.29562 17.0105 2.50673C17.0105 2.50672 17.0104 2.50671 17.0104 2.50669L16.9895 2.48755C16.6095 2.13955 16.2181 1.78117 15.7441 1.51887C15.2443 1.24224 14.6705 1.08003 13.9233 1.08003C13.1761 1.08003 12.6023 1.24223 12.1024 1.51887C11.6284 1.78112 11.2371 2.13944 10.857 2.48739L10.836 2.50669C10.8359 2.5067 10.8359 2.5067 10.8359 2.50671C9.97412 3.29556 9.10424 4.08537 7.35686 4.08537C5.60937 4.08537 4.73949 3.29557 3.87753 2.50671L37.4392 2.87551Z" stroke="#FFD569"/>
</svg>
