<svg width="24" height="23" viewBox="0 0 24 23" fill="none" xmlns="http://www.w3.org/2000/svg">
<path opacity="0.3" fill-rule="evenodd" clip-rule="evenodd" d="M3.66663 0C3.11434 0 2.66663 0.447715 2.66663 1V15C2.66663 15.5523 3.11434 16 3.66662 16H20.3333C20.8856 16 21.3333 15.5523 21.3333 15V1C21.3333 0.447715 20.8856 0 20.3333 0H3.66663ZM12 4.26663C12.5377 3.63976 13.5416 2.66663 14.4 2.66663C15.9194 2.66663 16.8 3.95824 16.8 5.46663C16.8 7.86663 12 10.6666 12 10.6666C12 10.6666 7.19998 7.86663 7.19998 5.36018C7.19998 3.85179 8.08051 2.66663 9.59998 2.66663C10.4584 2.66663 11.4622 3.63976 12 4.26663Z" fill="#623CEA"/>
<path fill-rule="evenodd" clip-rule="evenodd" d="M0 6.31146C0 5.90358 0.462082 5.66731 0.792745 5.90612L12 14.0002L23.2073 5.90612C23.5379 5.66731 24 5.90357 24 6.31146V20.6669C24 21.7715 23.1046 22.6669 22 22.6669H2C0.89543 22.6669 0 21.7715 0 20.6669V6.31146Z" fill="#623CEA"/>
</svg>
