<svg width="160" height="22" viewBox="0 0 160 22" fill="none" xmlns="http://www.w3.org/2000/svg">
<path d="M19.2717 9.70153C20.4257 9.71131 20.8023 9.38368 20.9441 9.16852C21.482 8.46924 20.6409 7.12448 18.6702 6.10246C19.433 4.6599 19.9661 3.36403 20.2301 2.43493C20.3768 1.92636 20.279 1.61829 20.2497 1.5645C20.1763 2.01438 19.57 3.64766 18.1763 5.86285C17.1005 5.37873 15.7459 4.99731 14.1469 4.84083C13.7606 4.11221 12.6457 2.09751 11.5454 1.01681C10.8217 0.307756 10.2446 0.0436939 9.78987 0.00946355C9.19328 -0.0589971 8.81675 0.258856 8.61137 0.483798C7.87297 1.28088 7.5649 2.58652 7.53556 4.09754C7.2226 3.56453 6.79716 3.04129 6.31305 2.98261H6.30327C5.41328 2.83102 4.65532 4.23935 4.75801 6.4741C3.11007 6.53278 1.70663 6.7235 0.762847 6.95822C0.337413 7.0658 0.0635706 7.27118 0 7.37387C0.0440104 7.3592 0.963339 6.97778 4.79713 6.97778C5.02208 9.25654 6.07344 11.3544 5.91695 10.9827C5.49641 11.6429 4.2739 13.6625 3.8827 15.1833C3.62841 16.1662 3.69687 16.8019 3.88759 17.2078C4.1272 17.7554 4.59175 17.9266 4.88516 17.9902C5.96097 18.2347 7.26661 17.8337 8.61137 17.0806C8.28863 17.6332 8.01478 18.308 8.22017 18.7726C8.53313 19.6185 10.1322 19.5745 12.0197 18.3667C12.8853 19.7506 13.741 20.8557 14.4159 21.5501C14.5283 21.6675 14.6506 21.7702 14.7924 21.8533C15.0124 21.9902 15.1591 22 15.1591 22C14.8071 21.7115 13.697 20.3667 12.4696 18.0537C13.4232 17.3642 14.4305 16.3813 15.3694 15.0757C20.6458 15.2713 21.526 14.0097 21.7314 13.7163C22.3671 12.8752 21.883 11.2615 19.2717 9.70153ZM15.9269 14.2688C16.9489 12.6502 17.2325 11.3544 17.1934 10.2981C18.3915 11.0512 19.2228 11.9118 19.301 12.8263C19.3499 13.3837 18.9538 14.0781 15.9269 14.2688ZM9.31065 16.665C9.73119 16.396 10.1517 16.1026 10.5674 15.7848C10.8559 16.3569 11.1542 16.9046 11.4525 17.4278C9.70674 18.3667 8.49401 17.9755 9.31065 16.665ZM18.5528 9.30055C18.1127 9.07072 17.6433 8.85556 17.1592 8.65506C17.5015 8.13672 17.8291 7.60859 18.1372 7.07069C19.8194 8.10738 20.1128 9.35434 18.5528 9.30055ZM11.9904 17.11C11.7557 16.6209 11.5161 16.0977 11.2813 15.5451C13.1396 15.5989 13.966 14.7383 14.0002 14.6698C14.0002 14.6747 12.9244 15.3398 11.3107 15.1979C12.6261 14.0977 13.8486 12.8898 14.9684 11.5891C15.345 11.149 15.7019 10.704 16.0393 10.2541C16.0247 10.2394 15.9709 10.127 15.3303 9.74065C13.1102 12.3324 10.9341 13.951 9.62361 14.7236C8.73851 14.2444 7.86808 13.3593 7.22749 12.083C6.36684 10.3666 5.93652 8.54259 5.87294 7.09514C6.40107 7.13426 6.95853 7.18805 7.54045 7.2614C6.582 8.84089 6.9243 9.97049 6.96343 10.0243C6.96343 10.0194 6.9243 8.77243 7.82896 7.46189C8.21528 9.7162 8.86076 11.9216 9.75075 14.0292C9.78987 14.0146 9.82899 14.0683 10.5527 13.6723C9.42312 10.4693 9.10038 7.73574 9.0906 6.21982C9.95124 5.68681 11.1591 5.36895 12.5968 5.45208C14.5137 5.56456 16.3083 6.10735 17.5944 6.7724C17.2863 7.22228 16.9538 7.68683 16.5919 8.16606C15.7019 6.54256 14.5626 6.2785 14.4941 6.28828C14.499 6.28828 15.609 6.89465 16.279 8.31765C14.6652 7.72596 13.0075 7.27118 11.3205 6.95333C10.7581 6.85064 10.1957 6.76262 9.6285 6.69416C9.62361 6.71372 9.55026 6.7724 9.53559 7.56947C12.8804 8.19051 15.4085 9.28588 16.724 10.0292C16.7582 11.0414 16.4257 12.2492 15.6335 13.4473C14.5772 15.0415 13.208 16.3275 11.9904 17.11ZM13.1689 4.77726C11.252 4.70391 10.005 5.09511 9.10038 5.66725C9.1884 3.41783 10.0148 2.38603 10.7434 2.43004C11.4672 2.24421 13.1004 4.66968 13.1689 4.77726ZM7.55023 4.90929C7.56979 5.42763 7.61869 5.96554 7.68715 6.51322C7.06123 6.47899 6.44997 6.45943 5.86316 6.45943C5.85827 6.59635 5.85827 4.26869 6.9243 4.32737H6.92919C7.17859 4.37138 7.38886 4.62078 7.55023 4.90929ZM6.34728 11.8727C7.23727 13.5793 8.21039 14.4742 9.14928 14.9828C7.13947 16.0488 5.81915 15.8434 5.5013 15.1784C5.49152 15.1637 5.02208 14.5133 6.34728 11.8727Z" fill="white"/>
<path d="M57.7957 20H60.8588C63.6713 20 65.9825 17.6887 65.9825 14.8763V5.12375C65.9825 2.31125 63.6713 0 60.8588 0H57.7338C57.6719 0 57.6069 0.061875 57.6069 0.12375V19.8762C57.6069 19.9381 57.6688 20 57.7957 20ZM61.6075 9.00062C62.7338 9.00062 63.6063 9.93813 63.6063 10.9994C63.6063 12.1256 62.6688 12.9981 61.6075 12.9981C60.4813 12.9981 59.6088 12.1256 59.6088 10.9994C59.5438 9.87625 60.4813 9.00062 61.6075 9.00062ZM55.4813 0H51.1063C48.2938 0 45.9825 2.31125 45.9825 5.12375V14.8763C45.9825 17.6887 48.2938 20 51.1063 20H55.4813C55.5432 20 55.6082 19.9381 55.6082 19.8762V0.12375C55.6082 0.061875 55.5463 0 55.4813 0ZM54.0457 18.3756H51.1063C50.6465 18.3764 50.1912 18.2864 49.7663 18.1108C49.3414 17.9352 48.9553 17.6774 48.6302 17.3523C48.3051 17.0272 48.0474 16.6412 47.8718 16.2163C47.6962 15.7914 47.6062 15.336 47.6069 14.8763V5.12375C47.6062 4.664 47.6962 4.20862 47.8718 3.78372C48.0474 3.35882 48.3051 2.97276 48.6302 2.64767C48.9553 2.32257 49.3414 2.06484 49.7663 1.88924C50.1912 1.71364 50.6465 1.62363 51.1063 1.62437H53.9838L54.0457 18.3756ZM49.1075 5.99937C49.1075 7.06063 49.9213 7.87437 50.9825 7.87437C52.0438 7.87437 52.8575 7.06063 52.8575 5.99937C52.8575 4.93813 52.0438 4.12437 50.9825 4.12437C49.9213 4.12437 49.1075 4.93813 49.1075 5.99937Z" fill="white"/>
<path d="M94.4126 1.72C94.4826 1.66 94.5526 1.6 94.6026 1.56C96.1626 0.55 97.9826 0 99.9826 0C101.863 0 103.623 0.5 105.123 1.42C105.233 1.5 105.523 1.69 105.683 1.88C104.233 0.28 99.9826 3.7 99.9826 3.7C98.4826 2.57 97.1526 1.8 96.1426 1.5C95.2926 1.29 94.7126 1.5 94.4426 1.7L94.4126 1.72ZM107.323 3.21C107.273 3.16 107.223 3.11 107.183 3.06C106.823 2.66 106.363 2.56 105.983 2.59C105.593 2.71 103.883 3.32 101.783 5.31C101.783 5.31 104.153 7.61 105.603 9.96C107.053 12.31 107.913 14.16 107.383 16.73C108.983 14.95 109.983 12.59 109.983 10C109.983 7.38 108.983 5 107.323 3.21ZM103.713 10.96C103.063 10.24 102.113 9.21 100.843 7.95C100.573 7.68 100.283 7.4 99.9826 7.1C99.9826 7.1 99.5126 7.56 98.9126 8.17C98.1426 8.94 97.1526 9.95 96.5926 10.54C95.6126 11.59 92.7926 14.89 92.6326 16.74C92.6326 16.74 91.9826 15.28 93.3826 11.89C94.2826 9.68 96.9826 6.36 98.1326 5.28C98.1326 5.28 97.1026 4.14 95.8026 3.35L95.7526 3.32C95.1226 2.95 94.4426 2.66 93.7826 2.62C93.1126 2.67 92.6926 3.16 92.6926 3.16C90.9488 5.01024 89.9792 7.45758 89.9826 10C89.9826 12.6522 91.0361 15.1957 92.9115 17.0711C93.8401 17.9997 94.9425 18.7362 96.1557 19.2388C97.369 19.7413 98.6693 20 99.9826 20C102.913 20 105.553 18.74 107.383 16.73C107.383 16.73 107.173 15.4 105.823 13.5C105.513 13.07 104.353 11.69 103.713 10.96Z" fill="white"/>
<path d="M159.665 15.3065C159.158 15.9462 157.918 16.4013 157.918 16.4013L148.693 19.715V17.271L155.482 14.853C156.253 14.5777 156.371 14.1858 155.744 13.9817C155.119 13.776 153.987 13.8359 153.218 14.1113L148.693 15.7049V13.1687L148.954 13.0812C148.954 13.0812 150.261 12.618 152.099 12.414C153.937 12.2115 156.188 12.4415 157.955 13.1104C159.947 13.742 160.171 14.6684 159.665 15.3065ZM149.571 11.1475V4.89594C149.571 4.16228 149.436 3.48692 148.748 3.29581C148.22 3.12576 147.893 3.61649 147.893 4.34853V20L143.672 18.6606V0C145.467 0.33363 148.081 1.12074 149.486 1.59527C153.061 2.82128 154.272 4.34853 154.272 7.7901C154.272 11.1442 152.202 12.4156 149.571 11.1458V11.1475ZM135.927 17.0184C133.884 16.4386 133.543 15.2401 134.475 14.5502C135.336 13.9121 136.8 13.4327 136.8 13.4327L142.853 11.2786V13.7323L138.496 15.2919C137.728 15.5673 137.61 15.9576 138.235 16.1632C138.86 16.3673 139.993 16.309 140.762 16.0337L142.851 15.2741V17.4702L142.435 17.5399C140.255 17.8928 138.023 17.7133 135.927 17.0168V17.0184Z" fill="white"/>
</svg>
