<svg width="20" height="20" viewBox="0 0 20 20" fill="none" xmlns="http://www.w3.org/2000/svg">
<path opacity="0.4" d="M16.6119 4.50025C16.3819 4.20125 16.1379 3.91025 15.8639 3.63625C12.3489 0.12125 6.65094 0.12125 3.13594 3.63625C2.86194 3.91025 2.61894 4.20125 2.38794 4.50025" stroke="#00AEFF" stroke-width="1.5" stroke-linecap="round" stroke-linejoin="round"/>
<path opacity="0.4" d="M2.38794 15.5C2.61794 15.799 2.86194 16.09 3.13594 16.364C6.65094 19.879 12.3489 19.879 15.8639 16.364C16.1379 16.09 16.3809 15.799 16.6119 15.5" stroke="#00AEFF" stroke-width="1.5" stroke-linecap="round" stroke-linejoin="round"/>
<path fill-rule="evenodd" clip-rule="evenodd" d="M4.021 12.571H1V10.04H4.019C4.718 10.04 5.285 10.607 5.285 11.306V11.306C5.286 12.005 4.719 12.571 4.021 12.571Z" stroke="#00AEFF" stroke-width="1.5" stroke-linecap="round" stroke-linejoin="round"/>
<path d="M1 10.0402V7.4292H3.7C4.421 7.4292 5.006 8.0142 5.006 8.7352V8.7352C5.006 9.4562 4.421 10.0412 3.7 10.0412" stroke="#00AEFF" stroke-width="1.5" stroke-linecap="round" stroke-linejoin="round"/>
<path d="M14.714 7.4292L16.857 10.3442L19 7.4292" stroke="#00AEFF" stroke-width="1.5" stroke-linecap="round" stroke-linejoin="round"/>
<path d="M16.86 12.5303V10.3403" stroke="#00AEFF" stroke-width="1.5" stroke-linecap="round" stroke-linejoin="round"/>
<path d="M12.1431 7.4292V10.4292C12.1431 11.6122 11.1841 12.5722 10.0001 12.5722V12.5722C8.81706 12.5722 7.85706 11.6132 7.85706 10.4292V7.4292" stroke="#00AEFF" stroke-width="1.5" stroke-linecap="round" stroke-linejoin="round"/>
</svg>
