<svg width="176" height="87" viewBox="0 0 176 87" fill="none" xmlns="http://www.w3.org/2000/svg">
<path fill-rule="evenodd" clip-rule="evenodd" d="M60.2313 34.7309L69.7266 28.9961C69.045 27.4919 68.5985 25.7291 68.2694 24.0604C66.6061 15.4864 69.0758 6.98234 76.0274 2.76086L66.6007 8.45425C59.6202 12.6613 57.1054 21.193 58.7741 29.7952C59.0796 31.4404 59.5497 33.2032 60.2313 34.7309ZM97.7421 31.3227L88.2468 37.0575C90.6911 34.5427 91.3962 31.5343 90.7382 28.2203C89.751 23.1671 85.5909 18.4194 79.057 18.631C77.4547 18.6774 76.1047 19.068 75.0298 19.7122L84.4863 14.0008C85.5909 13.3427 86.9306 12.9432 88.5759 12.8962C95.1098 12.6846 99.2698 17.4323 100.257 22.4855C100.892 25.7995 100.21 28.8079 97.7421 31.3227ZM93.8404 35.4598L84.345 41.1711L88.2701 37.058L97.7419 31.3232L93.8404 35.4598ZM91.5611 61.548L101.056 55.8367L90.5035 56.1658L90.5033 56.1659C90.4114 55.8661 90.3176 55.5682 90.2235 55.2699C89.8606 54.1185 89.4955 52.9601 89.2342 51.6534C88.106 45.8481 89.2107 40.3719 93.8408 35.4597L84.3455 41.1945C79.7154 46.1067 78.6107 51.5594 79.7389 57.3882C80.0189 58.8959 80.4568 60.226 80.8898 61.5412C80.9293 61.6611 80.9687 61.781 81.008 61.9008L81.0085 61.9006L91.5611 61.548ZM82.1361 29.1844L72.6408 34.8957L60.2546 34.7312L69.7264 28.9964L82.1361 29.1844ZM94.3815 85.4744L103.866 79.7459C102.976 80.2827 101.945 80.6093 100.774 80.6327C96.4733 80.7737 92.3132 77.0367 91.3731 72.1715C90.6695 68.6063 91.932 65.4625 94.3432 64.0014L84.8627 69.7272C82.4419 71.1844 81.1727 74.3338 81.8778 77.9063C82.8179 82.7715 86.978 86.5085 91.2791 86.3675C92.4308 86.3205 93.4884 86.0149 94.3815 85.4744Z" fill="url(#paint0_linear_1_610)"/>
<path d="M86.0616 0.0166586C101.174 -0.47691 111.163 10.0761 113.325 21.1931C115.018 29.8893 112.338 36.1882 107.473 41.0064L104.112 44.3438C101.245 47.1877 100.046 50.6662 100.939 55.1788L101.08 55.8369L90.5508 56.166C90.0807 54.7323 89.5871 53.2986 89.2816 51.6533C88.1534 45.8245 89.2581 40.3718 93.8882 35.4596L97.8133 31.3465C100.258 28.8317 100.963 25.8232 100.305 22.5093C99.3175 17.4561 95.1574 12.7084 88.6235 12.92C81.7135 13.1315 79.9038 19.5244 81.1025 25.6822C81.361 26.9984 81.7135 28.2206 82.2071 29.1842L69.8209 29.0197C69.1393 27.492 68.6692 25.7292 68.3637 24.084C65.9664 12.1913 71.6306 0.463221 86.0616 0.0166586Z" fill="url(#paint1_linear_1_610)"/>
<path d="M97.3668 63.1464C101.644 63.0054 105.922 66.86 106.862 71.7016C107.802 76.5668 105.052 80.5154 100.751 80.6564C96.4501 80.7974 92.2901 77.0604 91.3499 72.1952C90.4568 67.3535 93.0892 63.2875 97.3668 63.1464Z" fill="url(#paint2_linear_1_610)"/>
<path d="M131.861 54.8819C130.332 54.8819 129.553 54.169 128.866 53.5399C128.245 52.9719 127.755 52.5232 126.707 52.5232C125.66 52.5232 125.17 52.9719 124.549 53.5399C123.862 54.169 123.083 54.8819 121.553 54.8819C120.024 54.8819 119.245 54.169 118.558 53.5399C117.937 52.9719 117.447 52.5232 116.4 52.5232C115.352 52.5232 114.862 52.9719 114.241 53.5399C113.554 54.169 112.775 54.8819 111.246 54.8819C109.717 54.8819 108.938 54.169 108.251 53.5399C107.63 52.9719 107.14 52.5232 106.093 52.5232C105.045 52.5232 104.555 52.9719 103.934 53.5399C103.247 54.169 102.468 54.8819 100.939 54.8819C99.4095 54.8819 98.6305 54.169 97.9432 53.5399C97.3227 52.9719 96.8325 52.5232 95.785 52.5232C95.4426 52.5232 95.1649 52.2456 95.1649 51.9031C95.1649 51.5608 95.4426 51.2831 95.785 51.2831C97.3143 51.2831 98.0933 51.996 98.7806 52.6251C99.4011 53.1931 99.8914 53.6418 100.939 53.6418C101.986 53.6418 102.477 53.1931 103.097 52.6252C103.784 51.996 104.563 51.2831 106.093 51.2831C107.622 51.2831 108.401 51.9961 109.088 52.6252C109.708 53.1932 110.198 53.6418 111.246 53.6418C112.293 53.6418 112.783 53.1931 113.404 52.6252C114.091 51.996 114.87 51.2831 116.4 51.2831C117.929 51.2831 118.708 51.996 119.395 52.6252C120.016 53.1931 120.506 53.6418 121.553 53.6418C122.601 53.6418 123.091 53.1931 123.712 52.6252C124.399 51.996 125.178 51.2831 126.707 51.2831C128.237 51.2831 129.016 51.996 129.703 52.6252C130.324 53.1931 130.814 53.6418 131.861 53.6418C132.909 53.6418 133.399 53.1931 134.02 52.6251C134.708 51.996 135.487 51.2831 137.016 51.2831C137.358 51.2831 137.636 51.5608 137.636 51.9031C137.636 52.2456 137.358 52.5232 137.016 52.5232C135.968 52.5232 135.478 52.9719 134.857 53.5399C134.17 54.169 133.391 54.8819 131.861 54.8819Z" fill="#F9C270"/>
<g opacity="0.4">
<path d="M146.37 84.0323C146.37 82.7404 147.417 81.6931 148.709 81.6931C150.001 81.6931 151.048 82.7404 151.048 84.0323V86.3716H146.37V84.0323Z" fill="#D5D9FF"/>
<path d="M34.225 34.1287C34.225 32.8367 35.2723 31.7894 36.5643 31.7894C37.8562 31.7894 38.9035 32.8367 38.9035 34.1287V36.4679H34.225V34.1287Z" fill="#D5D9FF"/>
<rect x="16.291" y="6.83777" width="4.67845" height="4.67845" fill="#D5D9FF"/>
<rect x="171.322" y="41.9261" width="4.67845" height="4.67845" fill="#D5D9FF"/>
<path d="M141.346 42.0742C141.346 40.7823 142.393 39.735 143.685 39.735H146.024V42.0742C146.024 43.3661 144.977 44.4134 143.685 44.4134C142.393 44.4134 141.346 43.3661 141.346 42.0742Z" fill="#D5D9FF"/>
<path d="M0 47.3392C0 46.0473 1.04731 45 2.33923 45H4.67845V47.3392C4.67845 48.6311 3.63115 49.6785 2.33923 49.6785C1.04731 49.6785 0 48.6311 0 47.3392Z" fill="#D5D9FF"/>
<path d="M27.962 78.4541H22.5289L25.1323 73.7756L27.962 78.4541Z" fill="#D5D9FF"/>
<path d="M160.38 9.17699H154.947L157.55 4.49854L160.38 9.17699Z" fill="#D5D9FF"/>
</g>
<defs>
<linearGradient id="paint0_linear_1_610" x1="85.2046" y1="-1.93565" x2="43.3995" y2="17.4737" gradientUnits="userSpaceOnUse">
<stop stop-color="#7683F6"/>
<stop offset="1" stop-color="#7683F6" stop-opacity="0"/>
</linearGradient>
<linearGradient id="paint1_linear_1_610" x1="101.731" y1="4.51437" x2="55.0366" y2="20.963" gradientUnits="userSpaceOnUse">
<stop stop-color="#9CA5FB"/>
<stop offset="1" stop-color="white"/>
</linearGradient>
<linearGradient id="paint2_linear_1_610" x1="106.861" y1="62.9791" x2="86.9582" y2="80.9299" gradientUnits="userSpaceOnUse">
<stop stop-color="#9CA5FB"/>
<stop offset="1" stop-color="white"/>
</linearGradient>
</defs>
</svg>
