<svg width="605" height="472" viewBox="0 0 605 472" fill="none" xmlns="http://www.w3.org/2000/svg">
<circle opacity="0.2" cx="480.574" cy="120.147" r="18.2581" fill="#FA84D4"/>
<path opacity="0.6" d="M472.006 96.7637C466.51 98.7776 461.9 102.663 458.984 107.737C456.067 112.812 455.031 118.751 456.058 124.513C457.084 130.275 460.107 135.492 464.596 139.247C469.085 143.002 474.754 145.057 480.606 145.049C486.459 145.042 492.122 142.973 496.602 139.207C501.082 135.44 504.091 130.216 505.103 124.451C506.115 118.686 505.064 112.749 502.135 107.682C499.205 102.615 494.585 98.7421 489.085 96.7421" stroke="#FFCBF5" stroke-width="3.26595" stroke-linecap="round" stroke-linejoin="round"/>
<path d="M489.056 96.6838C494.831 98.7965 499.62 102.971 502.501 108.404C505.382 113.837 506.151 120.143 504.66 126.109C503.169 132.074 499.524 137.278 494.426 140.716C489.328 144.155 483.138 145.586 477.048 144.734" stroke="#FA84D4" stroke-width="3.26595" stroke-linecap="round" stroke-linejoin="round"/>
<circle cx="480.574" cy="95.086" r="6.08604" fill="white"/>
<path opacity="0.3" fill-rule="evenodd" clip-rule="evenodd" d="M489.657 120.84C489.657 120.669 489.519 120.531 489.348 120.531H477.402C475.468 120.531 473.9 122.098 473.9 124.032C473.9 125.966 475.468 127.534 477.402 127.534H489.348C489.519 127.534 489.657 127.395 489.657 127.225V120.84ZM478.277 124.032C478.277 124.999 477.494 125.783 476.527 125.783C475.56 125.783 474.776 124.999 474.776 124.032C474.776 123.065 475.56 122.281 476.527 122.281C477.494 122.281 478.277 123.065 478.277 124.032Z" fill="#FA84D4"/>
<path opacity="0.3" fill-rule="evenodd" clip-rule="evenodd" d="M482.985 113.121C482.864 113 482.668 113 482.548 113.121L474.101 121.568C472.733 122.936 472.733 125.153 474.101 126.52C475.468 127.888 477.685 127.888 479.052 126.52L487.5 118.073C487.62 117.952 487.62 117.757 487.5 117.636L482.985 113.121ZM478.277 124.032C478.277 124.999 477.493 125.783 476.526 125.783C475.559 125.783 474.776 124.999 474.776 124.032C474.776 123.065 475.559 122.281 476.526 122.281C477.493 122.281 478.277 123.065 478.277 124.032Z" fill="#FA84D4"/>
<path fill-rule="evenodd" clip-rule="evenodd" d="M473.334 111.777C473.163 111.777 473.025 111.915 473.025 112.086V124.032C473.025 125.966 474.593 127.534 476.527 127.534C478.46 127.534 480.028 125.966 480.028 124.032V112.086C480.028 111.915 479.89 111.777 479.719 111.777H473.334ZM478.277 124.032C478.277 124.999 477.493 125.783 476.526 125.783C475.559 125.783 474.776 124.999 474.776 124.032C474.776 123.065 475.559 122.281 476.526 122.281C477.493 122.281 478.277 123.065 478.277 124.032Z" fill="#FA84D4"/>
<path opacity="0.34" fill-rule="evenodd" clip-rule="evenodd" d="M480.574 97.1947L478.651 98.2515C478.421 98.378 478.136 98.2855 478.015 98.0449C477.967 97.9491 477.95 97.8394 477.968 97.7327L478.335 95.4944L476.779 93.9092C476.592 93.7194 476.589 93.4078 476.77 93.2132C476.842 93.1357 476.937 93.0852 477.04 93.0697L479.19 92.7431L480.152 90.7066C480.267 90.4628 480.55 90.3628 480.783 90.4831C480.876 90.531 480.951 90.6095 480.997 90.7066L481.959 92.7431L484.109 93.0697C484.367 93.1088 484.545 93.3585 484.508 93.6275C484.493 93.7346 484.444 93.8336 484.37 93.9092L482.814 95.4944L483.181 97.7327C483.225 98.0006 483.053 98.255 482.797 98.301C482.695 98.3193 482.59 98.3019 482.498 98.2515L480.574 97.1947Z" fill="#FA84D4"/>
<circle opacity="0.2" cx="40.1772" cy="226.341" r="18.6433" fill="#F8AE3F"/>
<path opacity="0.4" d="M31.4855 202.623C25.9111 204.666 21.2344 208.606 18.2761 213.754C15.3178 218.901 14.267 224.926 15.3081 230.771C16.3492 236.616 19.4157 241.907 23.9693 245.717C28.523 249.526 34.2728 251.61 40.2097 251.602C46.1466 251.595 51.8911 249.496 56.4351 245.675C60.9791 241.855 64.0321 236.555 65.0584 230.708C66.0847 224.86 65.0186 218.838 62.0473 213.698C59.076 208.559 54.3893 204.629 48.8098 202.601" stroke="#F8AE3F" stroke-width="3" stroke-linecap="round" stroke-linejoin="round"/>
<path d="M48.7574 202.532C52.6601 203.956 56.1515 206.32 58.9223 209.415C61.6931 212.51 63.6578 216.241 64.6424 220.277C65.627 224.313 65.6011 228.529 64.567 232.553C63.5328 236.576 61.5224 240.282 58.7138 243.343C55.9051 246.404 52.3849 248.725 48.465 250.1C44.5451 251.476 40.3465 251.863 36.2411 251.228C32.1357 250.594 28.2502 248.956 24.9288 246.461C21.6074 243.966 18.9526 240.69 17.1995 236.924" stroke="#F8AE3F" stroke-width="3" stroke-linecap="round" stroke-linejoin="round"/>
<path opacity="0.3" fill-rule="evenodd" clip-rule="evenodd" d="M39.9359 230.941C44.06 230.941 47.4032 227.598 47.4032 223.474C47.4032 219.35 44.06 216.006 39.9359 216.006C35.8118 216.006 32.4686 219.35 32.4686 223.474C32.4686 227.598 35.8118 230.941 39.9359 230.941Z" fill="#F8AE3F"/>
<path opacity="0.3" fill-rule="evenodd" clip-rule="evenodd" d="M34.8377 223.474L38.5992 233.146L39.9134 232.635L41.2188 233.151L45.0419 223.474H34.8377ZM37.5667 225.34H42.2972L39.9133 231.375L37.5667 225.34Z" fill="#F8AE3F"/>
<path opacity="0.3" d="M38.0691 235.608H41.8027C41.8027 236.639 40.9669 237.475 39.9359 237.475C38.9049 237.475 38.0691 236.639 38.0691 235.608Z" fill="#F8AE3F"/>
<path fill-rule="evenodd" clip-rule="evenodd" d="M36.2022 230.941C36.2022 230.425 36.6202 230.008 37.1357 230.008H42.7362C43.2517 230.008 43.6696 230.425 43.6696 230.941C43.6696 231.456 43.2517 231.874 42.7362 231.874H37.1357C36.6202 231.874 36.2022 231.456 36.2022 230.941ZM36.2022 232.808C36.2022 232.292 36.6201 231.875 37.1356 231.875H42.7361C43.2516 231.875 43.6695 232.292 43.6695 232.808C43.6695 233.321 43.2549 233.738 42.7422 233.741C43.2549 233.745 43.6695 234.161 43.6695 234.675C43.6695 235.19 43.2516 235.608 42.7361 235.608H37.1356C36.6201 235.608 36.2022 235.19 36.2022 234.675C36.2022 234.161 36.6168 233.745 37.1296 233.741C36.6168 233.738 36.2022 233.321 36.2022 232.808Z" fill="#F8AE3F"/>
<path opacity="0.4" fill-rule="evenodd" clip-rule="evenodd" d="M40.1772 202.905L38.2131 203.984C37.978 204.114 37.6872 204.019 37.5636 203.773C37.5144 203.676 37.4974 203.564 37.5153 203.455L37.8904 201.169L36.3014 199.55C36.1112 199.357 36.1073 199.038 36.2927 198.84C36.3665 198.761 36.4632 198.709 36.5679 198.693L38.7639 198.36L39.746 196.28C39.8635 196.031 40.1519 195.929 40.3901 196.052C40.4849 196.101 40.5617 196.181 40.6085 196.28L41.5905 198.36L43.7865 198.693C44.0494 198.733 44.2315 198.988 44.1933 199.263C44.1781 199.372 44.1288 199.473 44.0531 199.55L42.464 201.169L42.8391 203.455C42.884 203.728 42.7082 203.988 42.4465 204.035C42.3422 204.054 42.235 204.036 42.1414 203.984L40.1772 202.905Z" fill="#F8AE3F"/>
<path d="M143.933 116.322L143.933 116.322L143.962 116.296C144.336 115.953 144.747 115.577 145.247 115.3C145.786 115.002 146.402 114.83 147.189 114.83C147.977 114.83 148.593 115.002 149.132 115.3C149.632 115.577 150.042 115.953 150.417 116.296L150.446 116.322C150.446 116.322 150.446 116.322 150.446 116.322C151.301 117.105 152.109 117.835 153.756 117.835C155.403 117.835 156.212 117.105 157.067 116.322L157.067 116.322L157.096 116.296C157.471 115.953 157.881 115.577 158.382 115.3C158.921 115.002 159.537 114.83 160.324 114.83C160.346 114.83 160.364 114.812 160.364 114.79C160.364 114.768 160.346 114.75 160.324 114.75C158.677 114.75 157.868 115.481 157.013 116.263L157.013 116.263L156.984 116.29C156.609 116.633 156.199 117.009 155.699 117.285C155.16 117.584 154.544 117.755 153.756 117.755C152.969 117.755 152.353 117.583 151.814 117.285C151.314 117.009 150.904 116.633 150.529 116.29L150.5 116.263L150.5 116.263C149.645 115.481 148.836 114.75 147.189 114.75C145.542 114.75 144.734 115.481 143.879 116.263L143.879 116.263L143.85 116.29C143.475 116.633 143.065 117.009 142.565 117.285C142.026 117.584 141.41 117.755 140.622 117.755C139.835 117.755 139.219 117.583 138.68 117.285C138.18 117.008 137.77 116.633 137.395 116.29L137.366 116.263L137.366 116.263C136.511 115.481 135.703 114.75 134.056 114.75C132.409 114.75 131.6 115.481 130.745 116.263L130.745 116.263L130.716 116.29C130.342 116.633 129.931 117.009 129.431 117.285C128.892 117.583 128.276 117.755 127.489 117.755C126.702 117.755 126.086 117.584 125.547 117.285C125.047 117.008 124.637 116.633 124.262 116.29L124.233 116.263C124.233 116.263 124.233 116.263 124.233 116.263C123.378 115.481 122.57 114.75 120.923 114.75C119.277 114.75 118.468 115.481 117.613 116.263L117.613 116.263C117.603 116.272 117.594 116.281 117.584 116.29C117.209 116.633 116.799 117.009 116.299 117.285C115.76 117.583 115.144 117.755 114.357 117.755C113.57 117.755 112.954 117.584 112.415 117.285C111.914 117.008 111.504 116.632 111.129 116.289L143.933 116.322ZM143.933 116.322C143.078 117.105 142.269 117.835 140.622 117.835M143.933 116.322L140.622 117.835M140.622 117.835C138.976 117.835 138.167 117.105 137.312 116.322M140.622 117.835L137.312 116.322M137.312 116.322C137.312 116.322 137.312 116.322 137.312 116.322M137.312 116.322L137.312 116.322M137.312 116.322L137.283 116.296C136.909 115.953 136.498 115.577 135.998 115.3C135.459 115.002 134.843 114.83 134.056 114.83C133.268 114.83 132.653 115.002 132.114 115.3C131.613 115.577 131.203 115.953 130.828 116.296L130.8 116.322C130.8 116.322 130.8 116.322 130.8 116.322C129.945 117.105 129.136 117.835 127.489 117.835C125.843 117.835 125.034 117.105 124.179 116.322C124.179 116.322 124.179 116.322 124.179 116.322L124.15 116.296C123.776 115.953 123.365 115.577 122.865 115.3C122.326 115.002 121.71 114.83 120.923 114.83C120.136 114.83 119.52 115.002 118.981 115.3C118.481 115.577 118.071 115.953 117.696 116.296C117.686 116.305 117.677 116.313 117.667 116.322L137.312 116.322ZM114.357 117.835C116.004 117.835 116.812 117.105 117.667 116.322L114.357 117.835ZM114.357 117.835C112.71 117.835 111.901 117.105 111.046 116.322L114.357 117.835ZM107.79 114.75C109.437 114.75 110.245 115.48 111.1 116.263L111.046 116.322C111.037 116.313 111.027 116.305 111.017 116.296C110.643 115.953 110.232 115.577 109.732 115.3C109.193 115.002 108.577 114.83 107.79 114.83C107.768 114.83 107.75 114.812 107.75 114.79C107.75 114.768 107.768 114.75 107.79 114.75Z" stroke="#FFD569" stroke-width="1.5"/>
<path d="M419.933 469.322L419.933 469.322L419.962 469.296C420.336 468.953 420.747 468.577 421.247 468.3C421.786 468.002 422.402 467.83 423.189 467.83C423.977 467.83 424.593 468.002 425.132 468.3C425.632 468.577 426.042 468.953 426.417 469.296L426.446 469.322C426.446 469.322 426.446 469.322 426.446 469.322C427.301 470.105 428.109 470.835 429.756 470.835C431.403 470.835 432.212 470.105 433.067 469.322L433.067 469.322L433.096 469.296C433.471 468.953 433.881 468.577 434.382 468.3C434.921 468.002 435.537 467.83 436.324 467.83C436.346 467.83 436.364 467.812 436.364 467.79C436.364 467.768 436.346 467.75 436.324 467.75C434.677 467.75 433.868 468.481 433.013 469.263L433.013 469.263L432.984 469.29C432.609 469.633 432.199 470.009 431.699 470.285C431.16 470.584 430.544 470.755 429.756 470.755C428.969 470.755 428.353 470.583 427.814 470.285C427.314 470.009 426.904 469.633 426.529 469.29L426.5 469.263L426.5 469.263C425.645 468.481 424.836 467.75 423.189 467.75C421.542 467.75 420.734 468.481 419.879 469.263L419.879 469.263L419.85 469.29C419.475 469.633 419.065 470.009 418.565 470.285C418.026 470.584 417.41 470.755 416.622 470.755C415.835 470.755 415.219 470.583 414.68 470.285C414.18 470.008 413.77 469.633 413.395 469.29L413.366 469.263L413.366 469.263C412.511 468.481 411.703 467.75 410.056 467.75C408.409 467.75 407.6 468.481 406.745 469.263L406.745 469.263L406.716 469.29C406.342 469.633 405.931 470.009 405.431 470.285C404.892 470.583 404.276 470.755 403.489 470.755C402.702 470.755 402.086 470.584 401.547 470.285C401.047 470.008 400.637 469.633 400.262 469.29L400.233 469.263C400.233 469.263 400.233 469.263 400.233 469.263C399.378 468.481 398.57 467.75 396.923 467.75C395.277 467.75 394.468 468.481 393.613 469.263L393.613 469.263C393.603 469.272 393.594 469.281 393.584 469.29C393.209 469.633 392.799 470.009 392.299 470.285C391.76 470.583 391.144 470.755 390.357 470.755C389.57 470.755 388.954 470.584 388.415 470.285C387.914 470.008 387.504 469.632 387.129 469.289L419.933 469.322ZM419.933 469.322C419.078 470.105 418.269 470.835 416.622 470.835M419.933 469.322L416.622 470.835M416.622 470.835C414.976 470.835 414.167 470.105 413.312 469.322M416.622 470.835L413.312 469.322M413.312 469.322C413.312 469.322 413.312 469.322 413.312 469.322M413.312 469.322L413.312 469.322M413.312 469.322L413.283 469.296C412.909 468.953 412.498 468.577 411.998 468.3C411.459 468.002 410.843 467.83 410.056 467.83C409.268 467.83 408.653 468.002 408.114 468.3C407.613 468.577 407.203 468.953 406.828 469.296L406.8 469.322C406.8 469.322 406.8 469.322 406.8 469.322C405.945 470.105 405.136 470.835 403.489 470.835C401.843 470.835 401.034 470.105 400.179 469.322C400.179 469.322 400.179 469.322 400.179 469.322L400.15 469.296C399.776 468.953 399.365 468.577 398.865 468.3C398.326 468.002 397.71 467.83 396.923 467.83C396.136 467.83 395.52 468.002 394.981 468.3C394.481 468.577 394.071 468.953 393.696 469.296C393.686 469.305 393.677 469.313 393.667 469.322L413.312 469.322ZM390.357 470.835C392.004 470.835 392.812 470.105 393.667 469.322L390.357 470.835ZM390.357 470.835C388.71 470.835 387.901 470.105 387.046 469.322L390.357 470.835ZM383.79 467.75C385.437 467.75 386.245 468.48 387.1 469.263L387.046 469.322C387.037 469.313 387.027 469.305 387.017 469.296C386.643 468.953 386.232 468.577 385.732 468.3C385.193 468.002 384.577 467.83 383.79 467.83C383.768 467.83 383.75 467.812 383.75 467.79C383.75 467.768 383.768 467.75 383.79 467.75Z" stroke="#FFD569" stroke-width="1.5"/>
<circle cx="508.5" cy="421.5" r="45.5" fill="white"/>
<circle opacity="0.2" cx="508.568" cy="420.863" r="22.8504" fill="#7683F6"/>
<path d="M498.032 392.11C491.274 394.586 485.605 399.364 482.018 405.604C478.432 411.844 477.158 419.147 478.42 426.233C479.682 433.318 483.4 439.733 488.92 444.351C494.44 448.969 501.411 451.495 508.608 451.486C515.805 451.477 522.769 448.933 528.277 444.301C533.786 439.669 537.487 433.245 538.731 426.156C539.975 419.068 538.683 411.767 535.081 405.536C531.479 399.306 525.797 394.542 519.033 392.083" stroke="#7683F6" stroke-width="3" stroke-linecap="round" stroke-linejoin="round"/>
<path fill-rule="evenodd" clip-rule="evenodd" d="M498.024 416.343L507.308 421.703C507.408 421.761 507.512 421.802 507.619 421.829V432.225L498.686 426.938C498.275 426.695 498.024 426.253 498.024 425.777V416.343ZM519.764 416.292V425.868C519.764 426.345 519.512 426.787 519.101 427.029L510.168 432.316V421.829C510.19 421.819 510.211 421.807 510.233 421.795L519.764 416.292Z" fill="#7683F6"/>
<path opacity="0.3" fill-rule="evenodd" clip-rule="evenodd" d="M498.315 413.738C498.429 413.595 498.572 413.474 498.739 413.385L508.184 408.354C508.581 408.143 509.057 408.143 509.453 408.354L518.899 413.385C519.027 413.454 519.142 413.541 519.24 413.643L508.883 419.622C508.815 419.662 508.753 419.707 508.695 419.756C508.638 419.707 508.575 419.662 508.507 419.622L498.315 413.738Z" fill="#7683F6"/>
<path fill-rule="evenodd" clip-rule="evenodd" d="M508.568 392.138L506.161 393.461C505.873 393.619 505.516 393.503 505.365 393.202C505.305 393.082 505.284 392.945 505.306 392.812L505.765 390.01L503.818 388.026C503.585 387.789 503.58 387.399 503.807 387.155C503.898 387.058 504.016 386.995 504.144 386.976L506.836 386.567L508.04 384.018C508.184 383.713 508.537 383.588 508.829 383.739C508.945 383.798 509.039 383.897 509.097 384.018L510.301 386.567L512.992 386.976C513.314 387.025 513.537 387.337 513.491 387.674C513.472 387.808 513.412 387.932 513.319 388.026L511.371 390.01L511.831 392.812C511.886 393.147 511.67 393.465 511.35 393.523C511.222 393.546 511.09 393.524 510.976 393.461L508.568 392.138Z" fill="#7683F6"/>
<circle cx="12" cy="43" r="3" stroke="#FFE4EB" stroke-width="2"/>
<circle cx="4" cy="104" r="3" stroke="#FDE8A0" stroke-width="2"/>
<circle cx="48" cy="133" r="3" stroke="#FFE4EB" stroke-width="2"/>
<rect x="32.4142" y="86.364" width="7" height="7" transform="rotate(-45 32.4142 86.364)" stroke="#C8B9FF" stroke-width="2"/>
<rect x="95" y="1" width="7" height="7" stroke="#C8B9FF" stroke-width="2"/>
<path d="M40 36.374C42.1667 34.7074 45.5 32.874 47.5 34.874C50 37.374 52.5 36.374 55.5 34.374" stroke="#A1FBFB" stroke-width="2"/>
<circle cx="554" cy="240" r="3" stroke="#FFE4EB" stroke-width="2"/>
<circle cx="601" cy="239" r="3" stroke="#FDE8A0" stroke-width="2"/>
<rect x="579" y="273" width="7" height="7" stroke="#C8B9FF" stroke-width="2"/>
<rect x="566.366" y="345.866" width="7" height="7" transform="rotate(-30 566.366 345.866)" stroke="#FFE4EB" stroke-width="2"/>
<path d="M583 319.374C585.167 317.707 588.5 315.874 590.5 317.874C593 320.374 595.5 319.374 598.5 317.374" stroke="#A1FBFB" stroke-width="2"/>
</svg>
