<svg width="35" height="35" viewBox="0 0 35 35" fill="none" xmlns="http://www.w3.org/2000/svg">
<circle opacity="0.7" cx="17.5" cy="17.5" r="17.5" fill="#EBEDFF"/>
<path opacity="0.3" fill-rule="evenodd" clip-rule="evenodd" d="M11.6429 9.75H16.665C17.0197 9.75 17.3629 9.87568 17.6337 10.1047L20.9687 12.9256C21.3057 13.2106 21.5 13.6295 21.5 14.0709V23.3125C21.5 24.6554 21.4847 24.75 20.1071 24.75H11.6429C10.2653 24.75 10.25 24.6554 10.25 23.3125V11.1875C10.25 9.84459 10.2653 9.75 11.6429 9.75ZM13.25 18.75C13.25 18.3358 13.5858 18 14 18H19.25C19.6642 18 20 18.3358 20 18.75C20 19.1642 19.6642 19.5 19.25 19.5H14C13.5858 19.5 13.25 19.1642 13.25 18.75ZM14 21C13.5858 21 13.25 21.3358 13.25 21.75C13.25 22.1642 13.5858 22.5 14 22.5H16.25C16.6642 22.5 17 22.1642 17 21.75C17 21.3358 16.6642 21 16.25 21H14Z" fill="#7683F6"/>
<path fill-rule="evenodd" clip-rule="evenodd" d="M13.1429 11.25H18.915C19.2697 11.25 19.6129 11.3757 19.8837 11.6047L23.2187 14.4256C23.5557 14.7106 23.75 15.1295 23.75 15.5709V24.8125C23.75 26.1554 23.7347 26.25 22.3571 26.25H13.1429C11.7653 26.25 11.75 26.1554 11.75 24.8125V12.6875C11.75 11.3446 11.7653 11.25 13.1429 11.25ZM13.25 18.75C13.25 18.3358 13.5858 18 14 18H19.25C19.6642 18 20 18.3358 20 18.75C20 19.1642 19.6642 19.5 19.25 19.5H14C13.5858 19.5 13.25 19.1642 13.25 18.75ZM14 21C13.5858 21 13.25 21.3358 13.25 21.75C13.25 22.1642 13.5858 22.5 14 22.5H16.25C16.6642 22.5 17 22.1642 17 21.75C17 21.3358 16.6642 21 16.25 21H14Z" fill="#7683F6"/>
</svg>
