<svg width="174" height="138" viewBox="0 0 174 138" fill="none" xmlns="http://www.w3.org/2000/svg">
<g filter="url(#filter0_d_1_806)">
<rect x="25.0002" y="15" width="124" height="88" rx="12" fill="white"/>
</g>
<path opacity="0.4" d="M54.7715 41.1243C54.8118 41.1243 54.8526 41.1198 54.8936 41.1105C57.5233 40.5123 58.6482 38.8004 59.1288 37.4696C59.6406 36.0528 59.537 34.7805 59.5324 34.7271C59.5066 34.431 59.2643 34.2041 58.9739 34.2041H56.2008C55.8658 34.2041 55.5952 34.4851 55.6233 34.8268C55.6475 35.121 55.8883 35.352 56.1819 35.352H58.176C58.307 35.352 58.4094 35.4673 58.3972 35.6009C58.3595 36.014 58.2694 36.5516 58.0634 37.1088C57.4997 38.6337 56.3513 39.603 54.6503 39.99C54.3481 40.0587 54.1575 40.3653 54.2247 40.6747C54.2827 40.9422 54.5145 41.1243 54.7715 41.1243Z" fill="#9CA5FB"/>
<path opacity="0.4" d="M45.7727 41.1243C45.7324 41.1243 45.6916 41.1198 45.6506 41.1105C43.0209 40.5123 41.896 38.8004 41.4154 37.4696C40.9036 36.0528 41.0072 34.7805 41.0118 34.7271C41.0376 34.431 41.2799 34.2041 41.5703 34.2041H44.3434C44.6784 34.2041 44.949 34.4851 44.9209 34.8268C44.8967 35.121 44.6559 35.352 44.3623 35.352H42.3682C42.2371 35.352 42.1348 35.4673 42.147 35.6009C42.1846 36.014 42.2747 36.5516 42.4808 37.1088C43.0445 38.6337 44.1928 39.603 45.8939 39.99C46.1961 40.0587 46.3867 40.3653 46.3195 40.6747C46.2614 40.9422 46.0297 41.1243 45.7727 41.1243Z" fill="#9CA5FB"/>
<path d="M51.9327 44.8346L52.5041 43.869H48.0396L48.6109 44.8346C49.0097 45.5085 49.2242 46.3169 49.2242 47.1462C49.2242 47.6527 49.1441 48.1547 48.9883 48.6247L48.6319 49.7H51.9118L51.5553 48.6247C51.3995 48.1547 51.3194 47.6527 51.3194 47.1462C51.3195 46.3169 51.5339 45.5085 51.9327 44.8346Z" fill="#9CA5FB"/>
<path d="M54.7994 49.7H45.7441C45.6029 49.7 45.4885 49.5829 45.4885 49.4384V48.014C45.4885 47.8696 45.6029 47.7524 45.7441 47.7524H54.7994C54.9405 47.7524 55.055 47.8696 55.055 48.014V49.4384C55.055 49.5829 54.9405 49.7 54.7994 49.7Z" fill="#9CA5FB"/>
<path d="M44.0952 32C44.0952 31.4477 44.5429 31 45.0952 31H55.8349C56.3872 31 56.8349 31.4477 56.8349 32V38.4008C56.8349 41.6745 54.1811 44.3283 50.9075 44.3283H50.0226C46.749 44.3283 44.0952 41.6745 44.0952 38.4008V32Z" fill="#9CA5FB"/>
<rect x="42.8369" y="31" width="14.8702" height="1.60251" rx="0.5" fill="#9CA5FB"/>
<path d="M53.7662 77C53.3884 74.9119 51.7179 73.679 49.6696 73.679C47.0645 73.679 45.1753 75.6875 45.1753 78.9091C45.1753 82.1307 47.0645 84.1392 49.6696 84.1392C51.7179 84.1392 53.3884 82.9062 53.7662 80.8182H52.5333C52.235 82.2301 51.0219 82.9858 49.6696 82.9858C47.8202 82.9858 46.3685 81.554 46.3685 78.9091C46.3685 76.2642 47.8202 74.8324 49.6696 74.8324C51.0219 74.8324 52.235 75.5881 52.5333 77H53.7662ZM58.7018 84.1591C60.77 84.1591 62.162 82.5881 62.162 80.2216C62.162 77.8352 60.77 76.2642 58.7018 76.2642C56.6336 76.2642 55.2415 77.8352 55.2415 80.2216C55.2415 82.5881 56.6336 84.1591 58.7018 84.1591ZM58.7018 83.1051C57.1307 83.1051 56.4148 81.7528 56.4148 80.2216C56.4148 78.6903 57.1307 77.3182 58.7018 77.3182C60.2728 77.3182 60.9887 78.6903 60.9887 80.2216C60.9887 81.7528 60.2728 83.1051 58.7018 83.1051ZM65.1263 79.4062C65.1263 78.0739 65.9516 77.3182 67.0752 77.3182C68.164 77.3182 68.8252 78.0291 68.8252 79.2273V84H69.9985V79.1477C69.9985 77.1989 68.9594 76.2642 67.4132 76.2642C66.2598 76.2642 65.5439 76.7812 65.186 77.5568H65.0865V76.3636H63.953V84H65.1263V79.4062ZM78.526 86.8636V76.3636H77.3925V77.5767H77.2533C76.9947 77.179 76.5374 76.2642 75.0459 76.2642C73.1169 76.2642 71.7845 77.7955 71.7845 80.2017C71.7845 82.6278 73.1169 84.1591 75.026 84.1591C76.4976 84.1591 76.9947 83.2443 77.2533 82.8267H77.3527V86.8636H78.526ZM77.3726 80.1818C77.3726 81.9119 76.597 83.1051 75.1851 83.1051C73.7135 83.1051 72.9578 81.8125 72.9578 80.1818C72.9578 78.571 73.6936 77.3182 75.1851 77.3182C76.6169 77.3182 77.3726 78.4716 77.3726 80.1818ZM85.4862 80.8778C85.4862 82.3097 84.3925 82.9659 83.5175 82.9659C82.543 82.9659 81.847 82.25 81.847 81.1364V76.3636H80.6737V81.2159C80.6737 83.1648 81.7078 84.0994 83.1396 84.0994C84.293 84.0994 85.0487 83.483 85.4067 82.7074H85.4862V84H86.6595V76.3636H85.4862V80.8778ZM88.8085 84H89.9818V76.3636H88.8085V84ZM89.4051 75.0909C89.8625 75.0909 90.2403 74.733 90.2403 74.2955C90.2403 73.858 89.8625 73.5 89.4051 73.5C88.9477 73.5 88.5698 73.858 88.5698 74.2955C88.5698 74.733 88.9477 75.0909 89.4051 75.0909ZM97.5398 78.0739C97.1719 76.9901 96.3467 76.2642 94.8353 76.2642C93.2245 76.2642 92.0313 77.179 92.0313 78.4716C92.0313 79.5256 92.6577 80.2315 94.0597 80.5597L95.3325 80.858C96.103 81.0369 96.466 81.4048 96.466 81.9318C96.466 82.5881 95.77 83.125 94.6762 83.125C93.7167 83.125 93.1151 82.7124 92.9063 81.892L91.7927 82.1705C92.0661 83.468 93.135 84.1591 94.6961 84.1591C96.4709 84.1591 97.679 83.1896 97.679 81.8722C97.679 80.8082 97.0129 80.1371 95.6506 79.804L94.5171 79.5256C93.6123 79.3018 93.2046 78.9986 93.2046 78.4119C93.2046 77.7557 93.9006 77.2784 94.8353 77.2784C95.8594 77.2784 96.282 77.8452 96.4859 78.3722L97.5398 78.0739ZM102.766 76.3636H101.136V74.5341H99.9622V76.3636H98.8088V77.358H99.9622V82.1307C99.9622 83.4631 101.036 84.0994 102.03 84.0994C102.468 84.0994 102.746 84.0199 102.905 83.9602L102.667 82.9062C102.567 82.9261 102.408 82.9659 102.15 82.9659C101.633 82.9659 101.136 82.8068 101.136 81.8125V77.358H102.766V76.3636ZM106.778 84.179C108.111 84.179 108.807 83.4631 109.045 82.9659H109.105V84H110.278V78.9688C110.278 76.5426 108.429 76.2642 107.454 76.2642C106.301 76.2642 104.989 76.6619 104.392 78.054L105.506 78.4517C105.764 77.8949 106.376 77.2983 107.494 77.2983C108.573 77.2983 109.105 77.87 109.105 78.8494V78.8892C109.105 79.456 108.528 79.4062 107.136 79.5852C105.719 79.7692 104.173 80.0824 104.173 81.8324C104.173 83.3239 105.327 84.179 106.778 84.179ZM106.957 83.125C106.023 83.125 105.346 82.7074 105.346 81.892C105.346 80.9972 106.162 80.7188 107.077 80.5994C107.574 80.5398 108.906 80.4006 109.105 80.1619V81.2358C109.105 82.1903 108.349 83.125 106.957 83.125ZM117.829 78.0739C117.461 76.9901 116.636 76.2642 115.124 76.2642C113.514 76.2642 112.32 77.179 112.32 78.4716C112.32 79.5256 112.947 80.2315 114.349 80.5597L115.622 80.858C116.392 81.0369 116.755 81.4048 116.755 81.9318C116.755 82.5881 116.059 83.125 114.965 83.125C114.006 83.125 113.404 82.7124 113.195 81.892L112.082 82.1705C112.355 83.468 113.424 84.1591 114.985 84.1591C116.76 84.1591 117.968 83.1896 117.968 81.8722C117.968 80.8082 117.302 80.1371 115.94 79.804L114.806 79.5256C113.901 79.3018 113.494 78.9986 113.494 78.4119C113.494 77.7557 114.19 77.2784 115.124 77.2784C116.149 77.2784 116.571 77.8452 116.775 78.3722L117.829 78.0739Z" fill="#9CA5FB"/>
<defs>
<filter id="filter0_d_1_806" x="0.000244141" y="0" width="174" height="138" filterUnits="userSpaceOnUse" color-interpolation-filters="sRGB">
<feFlood flood-opacity="0" result="BackgroundImageFix"/>
<feColorMatrix in="SourceAlpha" type="matrix" values="0 0 0 0 0 0 0 0 0 0 0 0 0 0 0 0 0 0 127 0" result="hardAlpha"/>
<feMorphology radius="5" operator="erode" in="SourceAlpha" result="effect1_dropShadow_1_806"/>
<feOffset dy="10"/>
<feGaussianBlur stdDeviation="15"/>
<feColorMatrix type="matrix" values="0 0 0 0 0.81 0 0 0 0 0.819 0 0 0 0 0.9 0 0 0 0.45 0"/>
<feBlend mode="normal" in2="BackgroundImageFix" result="effect1_dropShadow_1_806"/>
<feBlend mode="normal" in="SourceGraphic" in2="effect1_dropShadow_1_806" result="shape"/>
</filter>
</defs>
</svg>
