<svg width="124" height="88" viewBox="0 0 124 88" fill="none" xmlns="http://www.w3.org/2000/svg">
<rect x="0.000244141" width="124" height="88" rx="12" fill="#7683F6"/>
<path fill-rule="evenodd" clip-rule="evenodd" d="M34.4853 35.5963L41.5174 24.9919C41.7937 24.5753 41.6817 24.0125 41.2673 23.7347C41.1192 23.6355 40.9451 23.5825 40.7671 23.5825H35.238V16.9066C35.238 16.4059 34.8342 16 34.3362 16C34.0347 16 33.7531 16.1515 33.5859 16.4037L26.5538 27.0081C26.2776 27.4247 26.3895 27.9875 26.8039 28.2653C26.952 28.3645 27.1261 28.4175 27.3041 28.4175H32.8333V35.0934C32.8333 35.5941 33.237 36 33.735 36C34.0365 36 34.3181 35.8485 34.4853 35.5963Z" fill="white"/>
<path opacity="0.6" fill-rule="evenodd" clip-rule="evenodd" d="M20.2085 17.5387H26.2202C27.2163 17.5387 28.0237 18.3505 28.0237 19.3518C28.0237 20.3532 27.2163 21.165 26.2202 21.165H20.2085C19.2124 21.165 18.4049 20.3532 18.4049 19.3518C18.4049 18.3505 19.2124 17.5387 20.2085 17.5387ZM20.2085 32.0439H26.2202C27.2163 32.0439 28.0237 32.8556 28.0237 33.857C28.0237 34.8584 27.2163 35.6701 26.2202 35.6701H20.2085C19.2124 35.6701 18.4049 34.8584 18.4049 33.857C18.4049 32.8556 19.2124 32.0439 20.2085 32.0439ZM17.8038 24.7913H22.6132C23.6092 24.7913 24.4167 25.6031 24.4167 26.6044C24.4167 27.6058 23.6092 28.4176 22.6132 28.4176H17.8038C16.8077 28.4176 16.0002 27.6058 16.0002 26.6044C16.0002 25.6031 16.8077 24.7913 17.8038 24.7913Z" fill="white"/>
<path d="M17.6508 69L18.675 66.1165H22.7914L23.8156 69H25.1082L21.3696 58.8182H20.0968L16.3582 69H17.6508ZM19.0627 65.0227L20.6934 60.429H20.773L22.4037 65.0227H19.0627ZM29.3776 61.3636H27.7469V59.5341H26.5736V61.3636H25.4202V62.358H26.5736V67.1307C26.5736 68.4631 27.6474 69.0994 28.6418 69.0994C29.0793 69.0994 29.3577 69.0199 29.5168 68.9602L29.2781 67.9062C29.1787 67.9261 29.0196 67.9659 28.7611 67.9659C28.244 67.9659 27.7469 67.8068 27.7469 66.8125V62.358H29.3776V61.3636ZM31.1425 69H32.3158V61.3636H31.1425V69ZM31.7391 60.0909C32.1964 60.0909 32.5743 59.733 32.5743 59.2955C32.5743 58.858 32.1964 58.5 31.7391 58.5C31.2817 58.5 30.9038 58.858 30.9038 59.2955C30.9038 59.733 31.2817 60.0909 31.7391 60.0909ZM40.7091 61.3636H39.4363L37.3284 67.4489H37.2488L35.1409 61.3636H33.8681L36.692 69H37.8852L40.7091 61.3636ZM42.2577 69H43.431V61.3636H42.2577V69ZM42.8543 60.0909C43.3117 60.0909 43.6895 59.733 43.6895 59.2955C43.6895 58.858 43.3117 58.5 42.8543 58.5C42.3969 58.5 42.0191 58.858 42.0191 59.2955C42.0191 59.733 42.3969 60.0909 42.8543 60.0909ZM48.4635 69.1591C49.9351 69.1591 50.4322 68.2443 50.6908 67.8267H50.83V69H51.9635V58.8182H50.7902V62.5767H50.6908C50.4322 62.179 49.9749 61.2642 48.4834 61.2642C46.5544 61.2642 45.222 62.7955 45.222 65.2017C45.222 67.6278 46.5544 69.1591 48.4635 69.1591ZM48.6226 68.1051C47.151 68.1051 46.3953 66.8125 46.3953 65.1818C46.3953 63.571 47.1311 62.3182 48.6226 62.3182C50.0544 62.3182 50.8101 63.4716 50.8101 65.1818C50.8101 66.9119 50.0345 68.1051 48.6226 68.1051ZM56.5224 69.179C57.8548 69.179 58.5508 68.4631 58.7895 67.9659H58.8491V69H60.0224V63.9688C60.0224 61.5426 58.173 61.2642 57.1986 61.2642C56.0452 61.2642 54.7327 61.6619 54.1361 63.054L55.2497 63.4517C55.5082 62.8949 56.1197 62.2983 57.2383 62.2983C58.3172 62.2983 58.8491 62.87 58.8491 63.8494V63.8892C58.8491 64.456 58.2724 64.4062 56.8804 64.5852C55.4635 64.7692 53.9173 65.0824 53.9173 66.8324C53.9173 68.3239 55.0707 69.179 56.5224 69.179ZM56.7014 68.125C55.7668 68.125 55.0906 67.7074 55.0906 66.892C55.0906 65.9972 55.906 65.7188 56.8207 65.5994C57.3179 65.5398 58.6503 65.4006 58.8491 65.1619V66.2358C58.8491 67.1903 58.0935 68.125 56.7014 68.125ZM65.0475 69.1591C66.5191 69.1591 67.0162 68.2443 67.2747 67.8267H67.414V69H68.5475V58.8182H67.3742V62.5767H67.2747C67.0162 62.179 66.5588 61.2642 65.0674 61.2642C63.1384 61.2642 61.806 62.7955 61.806 65.2017C61.806 67.6278 63.1384 69.1591 65.0475 69.1591ZM65.2066 68.1051C63.735 68.1051 62.9793 66.8125 62.9793 65.1818C62.9793 63.571 63.7151 62.3182 65.2066 62.3182C66.6384 62.3182 67.3941 63.4716 67.3941 65.1818C67.3941 66.9119 66.6185 68.1051 65.2066 68.1051ZM74.061 69.1591C75.6121 69.1591 76.7456 68.3835 77.1036 67.2301L75.9701 66.9119C75.6718 67.7074 74.9807 68.1051 74.061 68.1051C72.6838 68.1051 71.7343 67.2152 71.6796 65.5795H77.2229V65.0824C77.2229 62.2386 75.5326 61.2642 73.9417 61.2642C71.8735 61.2642 70.5013 62.8949 70.5013 65.2415C70.5013 67.5881 71.8536 69.1591 74.061 69.1591ZM71.6796 64.5653C71.7591 63.3771 72.5993 62.3182 73.9417 62.3182C75.2144 62.3182 76.0297 63.2727 76.0297 64.5653H71.6796ZM84.4168 63.0739C84.0489 61.9901 83.2236 61.2642 81.7122 61.2642C80.1015 61.2642 78.9083 62.179 78.9083 63.4716C78.9083 64.5256 79.5347 65.2315 80.9367 65.5597L82.2094 65.858C82.98 66.0369 83.3429 66.4048 83.3429 66.9318C83.3429 67.5881 82.6469 68.125 81.5532 68.125C80.5936 68.125 79.9921 67.7124 79.7833 66.892L78.6696 67.1705C78.9431 68.468 80.012 69.1591 81.573 69.1591C83.3479 69.1591 84.556 68.1896 84.556 66.8722C84.556 65.8082 83.8898 65.1371 82.5276 64.804L81.3941 64.5256C80.4892 64.3018 80.0816 63.9986 80.0816 63.4119C80.0816 62.7557 80.7776 62.2784 81.7122 62.2784C82.7364 62.2784 83.159 62.8452 83.3628 63.3722L84.4168 63.0739Z" fill="white"/>
</svg>
