<svg width="298" height="93" viewBox="0 0 298 93" fill="none" xmlns="http://www.w3.org/2000/svg">
<g filter="url(#filter0_d_1_160)">
<rect x="10" width="277.898" height="73" rx="6.63636" fill="white"/>
<path d="M89.0308 29.5448C88.1515 29.5448 87.3551 29.354 86.6417 28.9725C85.9366 28.5826 85.3808 28.0475 84.9743 27.3673C84.5761 26.6871 84.3771 25.9197 84.3771 25.0653C84.3771 24.2109 84.5803 23.4435 84.9868 22.7633C85.3932 22.0831 85.949 21.5522 86.6542 21.1706C87.3676 20.7807 88.1639 20.5858 89.0432 20.5858C89.7567 20.5858 90.4078 20.7102 90.9968 20.959C91.5858 21.2079 92.0835 21.5688 92.49 22.0416L91.4448 23.0246C90.8143 22.3444 90.0387 22.0043 89.1179 22.0043C88.5206 22.0043 87.9856 22.137 87.5127 22.4025C87.0399 22.6596 86.6707 23.0205 86.4053 23.485C86.1398 23.9496 86.0071 24.4763 86.0071 25.0653C86.0071 25.6543 86.1398 26.181 86.4053 26.6456C86.6707 27.1101 87.0399 27.4751 87.5127 27.7406C87.9856 27.9977 88.5206 28.1263 89.1179 28.1263C90.0387 28.1263 90.8143 27.7821 91.4448 27.0935L92.49 28.089C92.0835 28.5618 91.5817 28.9227 90.9844 29.1715C90.3954 29.4204 89.7442 29.5448 89.0308 29.5448ZM96.634 29.5075C95.962 29.5075 95.3565 29.3623 94.8173 29.072C94.2781 28.7817 93.855 28.3793 93.5481 27.865C93.2494 27.3424 93.1001 26.7534 93.1001 26.0981C93.1001 25.4427 93.2494 24.8579 93.5481 24.3436C93.855 23.8293 94.2781 23.4269 94.8173 23.1366C95.3565 22.8463 95.962 22.7011 96.634 22.7011C97.3142 22.7011 97.9239 22.8463 98.4631 23.1366C99.0023 23.4269 99.4212 23.8293 99.7199 24.3436C100.027 24.8579 100.18 25.4427 100.18 26.0981C100.18 26.7534 100.027 27.3424 99.7199 27.865C99.4212 28.3793 99.0023 28.7817 98.4631 29.072C97.9239 29.3623 97.3142 29.5075 96.634 29.5075ZM96.634 28.1761C97.2064 28.1761 97.6792 27.9853 98.0525 27.6037C98.4258 27.2221 98.6124 26.7202 98.6124 26.0981C98.6124 25.4759 98.4258 24.974 98.0525 24.5925C97.6792 24.2109 97.2064 24.0201 96.634 24.0201C96.0616 24.0201 95.5887 24.2109 95.2155 24.5925C94.8505 24.974 94.668 25.4759 94.668 26.0981C94.668 26.7202 94.8505 27.2221 95.2155 27.6037C95.5887 27.9853 96.0616 28.1761 96.634 28.1761ZM103.148 23.7463C103.596 23.0495 104.384 22.7011 105.513 22.7011V24.1818C105.38 24.1569 105.26 24.1445 105.152 24.1445C104.546 24.1445 104.073 24.3229 103.733 24.6796C103.393 25.028 103.223 25.534 103.223 26.1976V29.4204H101.668V22.7758H103.148V23.7463ZM109.932 28.1885C110.654 28.1885 111.255 27.948 111.736 27.4668L112.557 28.425C112.267 28.7817 111.894 29.0513 111.437 29.2338C110.981 29.4163 110.467 29.5075 109.895 29.5075C109.165 29.5075 108.522 29.3623 107.966 29.072C107.41 28.7817 106.979 28.3793 106.672 27.865C106.373 27.3424 106.224 26.7534 106.224 26.0981C106.224 25.451 106.369 24.8704 106.659 24.356C106.958 23.8334 107.364 23.4269 107.879 23.1366C108.401 22.8463 108.99 22.7011 109.646 22.7011C110.268 22.7011 110.832 22.838 111.338 23.1117C111.852 23.3772 112.259 23.7629 112.557 24.2689C112.856 24.7667 113.005 25.3515 113.005 26.0234L107.916 27.0189C108.074 27.4005 108.327 27.6908 108.675 27.8899C109.023 28.089 109.442 28.1885 109.932 28.1885ZM109.646 23.9454C109.073 23.9454 108.609 24.1321 108.252 24.5054C107.904 24.8786 107.729 25.3805 107.729 26.011V26.0234L111.487 25.3017C111.379 24.8952 111.16 24.5676 110.828 24.3187C110.504 24.0698 110.11 23.9454 109.646 23.9454ZM116.553 29.5075C116.014 29.5075 115.487 29.437 114.973 29.296C114.458 29.155 114.048 28.9766 113.741 28.7609L114.338 27.5788C114.637 27.7779 114.993 27.9397 115.408 28.0641C115.831 28.1802 116.246 28.2383 116.652 28.2383C117.581 28.2383 118.046 27.9936 118.046 27.5042C118.046 27.2719 117.926 27.1101 117.685 27.0189C117.453 26.9276 117.075 26.8405 116.553 26.7576C116.005 26.6746 115.557 26.5792 115.209 26.4714C114.869 26.3635 114.57 26.1769 114.313 25.9114C114.064 25.6377 113.94 25.2602 113.94 24.7791C113.94 24.1486 114.201 23.6468 114.724 23.2735C115.255 22.8919 115.968 22.7011 116.864 22.7011C117.32 22.7011 117.776 22.755 118.233 22.8629C118.689 22.9624 119.062 23.0993 119.353 23.2735L118.755 24.4556C118.191 24.1238 117.557 23.9579 116.851 23.9579C116.395 23.9579 116.047 24.0284 115.806 24.1694C115.574 24.3021 115.458 24.4805 115.458 24.7044C115.458 24.9533 115.582 25.1317 115.831 25.2395C116.088 25.339 116.482 25.4344 117.013 25.5257C117.544 25.6086 117.98 25.704 118.32 25.8119C118.66 25.9197 118.95 26.1022 119.191 26.3594C119.44 26.6165 119.564 26.9815 119.564 27.4544C119.564 28.0765 119.294 28.5743 118.755 28.9476C118.216 29.3209 117.482 29.5075 116.553 29.5075ZM127.503 28.1885C128.225 28.1885 128.826 27.948 129.307 27.4668L130.128 28.425C129.838 28.7817 129.465 29.0513 129.009 29.2338C128.552 29.4163 128.038 29.5075 127.466 29.5075C126.736 29.5075 126.093 29.3623 125.537 29.072C124.981 28.7817 124.55 28.3793 124.243 27.865C123.944 27.3424 123.795 26.7534 123.795 26.0981C123.795 25.451 123.94 24.8704 124.23 24.356C124.529 23.8334 124.936 23.4269 125.45 23.1366C125.972 22.8463 126.561 22.7011 127.217 22.7011C127.839 22.7011 128.403 22.838 128.909 23.1117C129.423 23.3772 129.83 23.7629 130.128 24.2689C130.427 24.7667 130.576 25.3515 130.576 26.0234L125.487 27.0189C125.645 27.4005 125.898 27.6908 126.246 27.8899C126.595 28.089 127.014 28.1885 127.503 28.1885ZM127.217 23.9454C126.644 23.9454 126.18 24.1321 125.823 24.5054C125.475 24.8786 125.301 25.3805 125.301 26.011V26.0234L129.058 25.3017C128.951 24.8952 128.731 24.5676 128.399 24.3187C128.075 24.0698 127.681 23.9454 127.217 23.9454ZM142.005 22.7758V29.4204H140.524V28.5618C140.267 28.8771 139.948 29.1135 139.566 29.2711C139.193 29.4287 138.778 29.5075 138.322 29.5075C137.675 29.5075 137.094 29.3665 136.58 29.0844C136.074 28.8024 135.676 28.4042 135.385 27.8899C135.103 27.3756 134.962 26.7783 134.962 26.0981C134.962 25.4179 135.103 24.8247 135.385 24.3187C135.676 23.8044 136.074 23.4062 136.58 23.1242C137.094 22.8421 137.675 22.7011 138.322 22.7011C138.753 22.7011 139.147 22.7758 139.504 22.9251C139.869 23.0744 140.184 23.2942 140.45 23.5846V22.7758H142.005ZM138.496 28.1761C139.068 28.1761 139.541 27.9853 139.915 27.6037C140.288 27.2221 140.475 26.7202 140.475 26.0981C140.475 25.4759 140.288 24.974 139.915 24.5925C139.541 24.2109 139.068 24.0201 138.496 24.0201C137.924 24.0201 137.451 24.2109 137.078 24.5925C136.713 24.974 136.53 25.4759 136.53 26.0981C136.53 26.7202 136.713 27.2221 137.078 27.6037C137.451 27.9853 137.924 28.1761 138.496 28.1761ZM147.723 22.7011C148.37 22.7011 148.947 22.8421 149.453 23.1242C149.967 23.4062 150.369 23.8044 150.66 24.3187C150.95 24.833 151.095 25.4261 151.095 26.0981C151.095 26.77 150.95 27.3673 150.66 27.8899C150.369 28.4042 149.967 28.8024 149.453 29.0844C148.947 29.3665 148.37 29.5075 147.723 29.5075C146.827 29.5075 146.118 29.2089 145.595 28.6116V31.8344H144.04V22.7758H145.521V23.6468C145.778 23.3315 146.093 23.0951 146.466 22.9375C146.848 22.7799 147.267 22.7011 147.723 22.7011ZM147.549 28.1761C148.121 28.1761 148.59 27.9853 148.955 27.6037C149.328 27.2221 149.515 26.7202 149.515 26.0981C149.515 25.4759 149.328 24.974 148.955 24.5925C148.59 24.2109 148.121 24.0201 147.549 24.0201C147.176 24.0201 146.84 24.1072 146.541 24.2814C146.243 24.4473 146.006 24.6879 145.832 25.0031C145.658 25.3183 145.571 25.6833 145.571 26.0981C145.571 26.5129 145.658 26.8779 145.832 27.1931C146.006 27.5083 146.243 27.753 146.541 27.9272C146.84 28.0931 147.176 28.1761 147.549 28.1761ZM154.76 29.5075C154.072 29.5075 153.533 29.3209 153.143 28.9476C152.761 28.566 152.57 28.0309 152.57 27.3424V20.1876H154.126V27.2304C154.126 27.894 154.437 28.2259 155.059 28.2259C155.266 28.2259 155.453 28.1844 155.619 28.1014L155.694 29.3458C155.403 29.4536 155.092 29.5075 154.76 29.5075ZM156.751 22.7758H158.306V29.4204H156.751V22.7758ZM157.535 21.6808C157.252 21.6808 157.016 21.5936 156.825 21.4194C156.634 21.2369 156.539 21.013 156.539 20.7475C156.539 20.4821 156.634 20.2622 156.825 20.088C157.016 19.9055 157.252 19.8143 157.535 19.8143C157.817 19.8143 158.053 19.9014 158.244 20.0756C158.435 20.2415 158.53 20.453 158.53 20.7102C158.53 20.9839 158.435 21.2162 158.244 21.407C158.061 21.5895 157.825 21.6808 157.535 21.6808ZM163.396 29.5075C162.707 29.5075 162.089 29.3623 161.542 29.072C160.994 28.7817 160.567 28.3793 160.26 27.865C159.953 27.3424 159.8 26.7534 159.8 26.0981C159.8 25.4427 159.953 24.8579 160.26 24.3436C160.567 23.8293 160.99 23.4269 161.53 23.1366C162.077 22.8463 162.699 22.7011 163.396 22.7011C164.051 22.7011 164.624 22.8338 165.113 23.0993C165.611 23.3647 165.984 23.7463 166.233 24.244L165.039 24.9409C164.848 24.6339 164.607 24.4058 164.317 24.2565C164.035 24.0989 163.724 24.0201 163.384 24.0201C162.803 24.0201 162.322 24.2109 161.94 24.5925C161.559 24.9658 161.368 25.4676 161.368 26.0981C161.368 26.7285 161.554 27.2346 161.928 27.6161C162.309 27.9894 162.795 28.1761 163.384 28.1761C163.724 28.1761 164.035 28.1014 164.317 27.9521C164.607 27.7945 164.848 27.5622 165.039 27.2553L166.233 27.9521C165.976 28.4498 165.598 28.8356 165.101 29.1093C164.611 29.3748 164.043 29.5075 163.396 29.5075ZM173.976 22.7758V29.4204H172.495V28.5618C172.238 28.8771 171.918 29.1135 171.537 29.2711C171.164 29.4287 170.749 29.5075 170.293 29.5075C169.646 29.5075 169.065 29.3665 168.551 29.0844C168.044 28.8024 167.646 28.4042 167.356 27.8899C167.074 27.3756 166.933 26.7783 166.933 26.0981C166.933 25.4179 167.074 24.8247 167.356 24.3187C167.646 23.8044 168.044 23.4062 168.551 23.1242C169.065 22.8421 169.646 22.7011 170.293 22.7011C170.724 22.7011 171.118 22.7758 171.475 22.9251C171.84 23.0744 172.155 23.2942 172.42 23.5846V22.7758H173.976ZM170.467 28.1761C171.039 28.1761 171.512 27.9853 171.885 27.6037C172.259 27.2221 172.445 26.7202 172.445 26.0981C172.445 25.4759 172.259 24.974 171.885 24.5925C171.512 24.2109 171.039 24.0201 170.467 24.0201C169.894 24.0201 169.422 24.2109 169.048 24.5925C168.683 24.974 168.501 25.4759 168.501 26.0981C168.501 26.7202 168.683 27.2221 169.048 27.6037C169.422 27.9853 169.894 28.1761 170.467 28.1761ZM179.059 29.5075C178.371 29.5075 177.753 29.3623 177.205 29.072C176.658 28.7817 176.231 28.3793 175.924 27.865C175.617 27.3424 175.463 26.7534 175.463 26.0981C175.463 25.4427 175.617 24.8579 175.924 24.3436C176.231 23.8293 176.654 23.4269 177.193 23.1366C177.74 22.8463 178.363 22.7011 179.059 22.7011C179.715 22.7011 180.287 22.8338 180.777 23.0993C181.274 23.3647 181.648 23.7463 181.896 24.244L180.702 24.9409C180.511 24.6339 180.27 24.4058 179.98 24.2565C179.698 24.0989 179.387 24.0201 179.047 24.0201C178.466 24.0201 177.985 24.2109 177.604 24.5925C177.222 24.9658 177.031 25.4676 177.031 26.0981C177.031 26.7285 177.218 27.2346 177.591 27.6161C177.973 27.9894 178.458 28.1761 179.047 28.1761C179.387 28.1761 179.698 28.1014 179.98 27.9521C180.27 27.7945 180.511 27.5622 180.702 27.2553L181.896 27.9521C181.639 28.4498 181.262 28.8356 180.764 29.1093C180.275 29.3748 179.706 29.5075 179.059 29.5075ZM178.412 32.2575C177.964 32.2575 177.583 32.1704 177.268 31.9961L177.554 31.262C177.811 31.3947 178.093 31.4611 178.4 31.4611C178.84 31.4611 179.059 31.3118 179.059 31.0131C179.059 30.8887 179.005 30.7892 178.898 30.7145C178.79 30.6398 178.624 30.6025 178.4 30.6025H178.014L178.35 29.3333H179.196L179.022 30.0301C179.379 30.0716 179.648 30.1836 179.831 30.3661C180.013 30.5569 180.105 30.7933 180.105 31.0754C180.105 31.4321 179.951 31.7183 179.644 31.9339C179.337 32.1496 178.927 32.2575 178.412 32.2575ZM186.13 29.5075C185.458 29.5075 184.853 29.3623 184.313 29.072C183.774 28.7817 183.351 28.3793 183.044 27.865C182.746 27.3424 182.596 26.7534 182.596 26.0981C182.596 25.4427 182.746 24.8579 183.044 24.3436C183.351 23.8293 183.774 23.4269 184.313 23.1366C184.853 22.8463 185.458 22.7011 186.13 22.7011C186.81 22.7011 187.42 22.8463 187.959 23.1366C188.498 23.4269 188.917 23.8293 189.216 24.3436C189.523 24.8579 189.676 25.4427 189.676 26.0981C189.676 26.7534 189.523 27.3424 189.216 27.865C188.917 28.3793 188.498 28.7817 187.959 29.072C187.42 29.3623 186.81 29.5075 186.13 29.5075ZM186.13 28.1761C186.702 28.1761 187.175 27.9853 187.549 27.6037C187.922 27.2221 188.109 26.7202 188.109 26.0981C188.109 25.4759 187.922 24.974 187.549 24.5925C187.175 24.2109 186.702 24.0201 186.13 24.0201C185.558 24.0201 185.085 24.2109 184.712 24.5925C184.347 24.974 184.164 25.4759 184.164 26.0981C184.164 26.7202 184.347 27.2221 184.712 27.6037C185.085 27.9853 185.558 28.1761 186.13 28.1761ZM187.014 21.8674C186.806 21.8674 186.624 21.8259 186.466 21.743C186.317 21.66 186.13 21.5356 185.906 21.3697C185.773 21.2618 185.661 21.183 185.57 21.1333C185.487 21.0752 185.404 21.0461 185.321 21.0461C185.147 21.0461 185.002 21.1125 184.886 21.2452C184.778 21.378 184.72 21.5605 184.712 21.7927H183.878C183.886 21.2867 184.011 20.8844 184.251 20.5858C184.5 20.2788 184.824 20.1254 185.222 20.1254C185.429 20.1254 185.607 20.1668 185.757 20.2498C185.914 20.3327 186.105 20.4572 186.329 20.6231C186.462 20.7309 186.57 20.8139 186.653 20.8719C186.744 20.9217 186.831 20.9466 186.914 20.9466C187.088 20.9466 187.229 20.8844 187.337 20.76C187.453 20.6355 187.515 20.4613 187.524 20.2373H188.357C188.341 20.7268 188.212 21.1208 187.972 21.4194C187.731 21.7181 187.412 21.8674 187.014 21.8674ZM194.324 28.1885C195.046 28.1885 195.647 27.948 196.129 27.4668L196.95 28.425C196.659 28.7817 196.286 29.0513 195.83 29.2338C195.374 29.4163 194.859 29.5075 194.287 29.5075C193.557 29.5075 192.914 29.3623 192.358 29.072C191.803 28.7817 191.371 28.3793 191.064 27.865C190.766 27.3424 190.616 26.7534 190.616 26.0981C190.616 25.451 190.761 24.8704 191.052 24.356C191.35 23.8334 191.757 23.4269 192.271 23.1366C192.794 22.8463 193.383 22.7011 194.038 22.7011C194.66 22.7011 195.224 22.838 195.73 23.1117C196.245 23.3772 196.651 23.7629 196.95 24.2689C197.248 24.7667 197.398 25.3515 197.398 26.0234L192.309 27.0189C192.466 27.4005 192.719 27.6908 193.068 27.8899C193.416 28.089 193.835 28.1885 194.324 28.1885ZM194.038 23.9454C193.466 23.9454 193.001 24.1321 192.644 24.5054C192.296 24.8786 192.122 25.3805 192.122 26.011V26.0234L195.88 25.3017C195.772 24.8952 195.552 24.5676 195.22 24.3187C194.897 24.0698 194.503 23.9454 194.038 23.9454ZM200.945 29.5075C200.406 29.5075 199.879 29.437 199.365 29.296C198.851 29.155 198.44 28.9766 198.133 28.7609L198.73 27.5788C199.029 27.7779 199.386 27.9397 199.8 28.0641C200.224 28.1802 200.638 28.2383 201.045 28.2383C201.974 28.2383 202.438 27.9936 202.438 27.5042C202.438 27.2719 202.318 27.1101 202.078 27.0189C201.845 26.9276 201.468 26.8405 200.945 26.7576C200.398 26.6746 199.95 26.5792 199.601 26.4714C199.261 26.3635 198.963 26.1769 198.705 25.9114C198.457 25.6377 198.332 25.2602 198.332 24.7791C198.332 24.1486 198.594 23.6468 199.116 23.2735C199.647 22.8919 200.36 22.7011 201.256 22.7011C201.713 22.7011 202.169 22.755 202.625 22.8629C203.081 22.9624 203.455 23.0993 203.745 23.2735L203.148 24.4556C202.584 24.1238 201.949 23.9579 201.244 23.9579C200.788 23.9579 200.439 24.0284 200.199 24.1694C199.966 24.3021 199.85 24.4805 199.85 24.7044C199.85 24.9533 199.975 25.1317 200.224 25.2395C200.481 25.339 200.875 25.4344 201.406 25.5257C201.937 25.6086 202.372 25.704 202.712 25.8119C203.052 25.9197 203.343 26.1022 203.583 26.3594C203.832 26.6165 203.957 26.9815 203.957 27.4544C203.957 28.0765 203.687 28.5743 203.148 28.9476C202.609 29.3209 201.874 29.5075 200.945 29.5075Z" fill="#33303E"/>
<rect x="83.8296" y="42.3069" width="73" height="14.1023" rx="7.05114" fill="#FFDFF9" fill-opacity="0.4"/>
<path d="M95.1728 53.0391C94.6678 53.0391 94.2177 52.9113 93.8223 52.6558C93.4329 52.3942 93.1257 52.0171 92.9006 51.5243C92.6756 51.0316 92.563 50.4476 92.563 49.7723C92.563 49.0971 92.6756 48.5131 92.9006 48.0203C93.1257 47.5276 93.4329 47.1534 93.8223 46.8979C94.2177 46.6364 94.6678 46.5056 95.1728 46.5056C95.6716 46.5056 96.1157 46.6364 96.505 46.8979C96.9004 47.1534 97.2107 47.5276 97.4358 48.0203C97.6608 48.5131 97.7734 49.0971 97.7734 49.7723C97.7734 50.4476 97.6608 51.0316 97.4358 51.5243C97.2107 52.0171 96.9004 52.3942 96.505 52.6558C96.1157 52.9113 95.6716 53.0391 95.1728 53.0391ZM95.1728 52.2269C95.6838 52.2269 96.0913 52.0171 96.3955 51.5973C96.7058 51.1776 96.8609 50.5692 96.8609 49.7723C96.8609 48.9754 96.7058 48.3671 96.3955 47.9473C96.0913 47.5276 95.6838 47.3177 95.1728 47.3177C94.6557 47.3177 94.242 47.5276 93.9318 47.9473C93.6276 48.3671 93.4755 48.9754 93.4755 49.7723C93.4755 50.5692 93.6276 51.1776 93.9318 51.5973C94.242 52.0171 94.6557 52.2269 95.1728 52.2269ZM101.006 49.2613C101.632 49.3221 102.11 49.5168 102.438 49.8453C102.767 50.1677 102.931 50.5814 102.931 51.0863C102.931 51.4513 102.84 51.7829 102.657 52.0809C102.475 52.3729 102.201 52.6071 101.836 52.7836C101.477 52.9539 101.036 53.0391 100.513 53.0391C100.057 53.0391 99.6187 52.9721 99.199 52.8383C98.7792 52.6984 98.4355 52.5068 98.1678 52.2634L98.5876 51.5426C98.8066 51.7494 99.0864 51.9167 99.4271 52.0444C99.7677 52.1661 100.13 52.2269 100.513 52.2269C100.987 52.2269 101.355 52.1266 101.617 51.9258C101.885 51.7251 102.019 51.4483 102.019 51.0954C102.019 50.7426 101.888 50.4689 101.626 50.2742C101.365 50.0795 100.969 49.9822 100.44 49.9822H99.929V49.3434L101.535 47.3724H98.4598V46.5786H102.676V47.1991L101.006 49.2613ZM111.188 48.1298V54.7363H110.312V52.2361C110.111 52.4916 109.864 52.6862 109.572 52.8201C109.287 52.9539 108.97 53.0208 108.623 53.0208C108.155 53.0208 107.735 52.9174 107.364 52.7106C106.993 52.5037 106.701 52.2148 106.488 51.8437C106.281 51.4665 106.178 51.0346 106.178 50.5479C106.178 50.0613 106.281 49.6324 106.488 49.2613C106.701 48.8902 106.993 48.6013 107.364 48.3944C107.735 48.1876 108.155 48.0842 108.623 48.0842C108.982 48.0842 109.311 48.1541 109.609 48.2941C109.907 48.4279 110.153 48.6286 110.348 48.8963V48.1298H111.188ZM108.696 52.2543C109.001 52.2543 109.277 52.1844 109.527 52.0444C109.776 51.8984 109.971 51.6977 110.111 51.4422C110.251 51.1806 110.321 50.8825 110.321 50.5479C110.321 50.2134 110.248 49.9183 110.102 49.6628C109.962 49.4073 109.767 49.2096 109.518 49.0697C109.274 48.9237 109.001 48.8507 108.696 48.8507C108.386 48.8507 108.106 48.9206 107.857 49.0606C107.614 49.2005 107.419 49.4012 107.273 49.6628C107.133 49.9183 107.063 50.2134 107.063 50.5479C107.063 50.8825 107.133 51.1806 107.273 51.4422C107.419 51.6977 107.614 51.8984 107.857 52.0444C108.106 52.1844 108.386 52.2543 108.696 52.2543ZM117.353 48.1298V52.9661H116.522V52.2361C116.346 52.4855 116.112 52.6801 115.82 52.8201C115.534 52.9539 115.221 53.0208 114.88 53.0208C114.235 53.0208 113.727 52.8444 113.356 52.4916C112.985 52.1326 112.799 51.6064 112.799 50.9129V48.1298H113.675V50.8126C113.675 51.281 113.788 51.6369 114.013 51.8802C114.238 52.1174 114.561 52.2361 114.98 52.2361C115.443 52.2361 115.808 52.0961 116.075 51.8163C116.343 51.5365 116.477 51.1411 116.477 50.6301V48.1298H117.353ZM121.201 52.2543C121.779 52.2543 122.245 52.0596 122.597 51.6703L123.072 52.2361C122.859 52.4916 122.588 52.6862 122.26 52.8201C121.937 52.9539 121.575 53.0208 121.174 53.0208C120.663 53.0208 120.21 52.9174 119.814 52.7106C119.419 52.4976 119.112 52.2026 118.893 51.8254C118.68 51.4483 118.573 51.0224 118.573 50.5479C118.573 50.0795 118.677 49.6567 118.884 49.2796C119.096 48.9024 119.385 48.6104 119.75 48.4036C120.122 48.1906 120.538 48.0842 121.001 48.0842C121.439 48.0842 121.837 48.1846 122.196 48.3853C122.555 48.58 122.841 48.8568 123.054 49.2157C123.267 49.5746 123.376 49.9883 123.382 50.4567L119.541 51.2049C119.662 51.5395 119.866 51.7981 120.152 51.9806C120.444 52.1631 120.794 52.2543 121.201 52.2543ZM121.001 48.8233C120.696 48.8233 120.423 48.8933 120.179 49.0332C119.942 49.1731 119.757 49.3708 119.623 49.6263C119.489 49.8757 119.422 50.1677 119.422 50.5023V50.5936L122.515 50.0096C122.436 49.6567 122.26 49.3708 121.986 49.1518C121.712 48.9328 121.384 48.8233 121.001 48.8233ZM125.995 53.0208C125.599 53.0208 125.219 52.9691 124.854 52.8657C124.489 52.7562 124.203 52.6193 123.996 52.4551L124.361 51.7616C124.574 51.9136 124.833 52.0353 125.137 52.1266C125.441 52.2178 125.748 52.2634 126.059 52.2634C126.825 52.2634 127.208 52.0444 127.208 51.6064C127.208 51.4604 127.157 51.3449 127.053 51.2597C126.95 51.1745 126.819 51.1137 126.661 51.0772C126.509 51.0346 126.29 50.989 126.004 50.9403C125.615 50.8795 125.295 50.8095 125.046 50.7304C124.802 50.6514 124.593 50.5175 124.416 50.3289C124.24 50.1404 124.151 49.8757 124.151 49.5351C124.151 49.0971 124.334 48.7473 124.699 48.4857C125.064 48.218 125.554 48.0842 126.168 48.0842C126.491 48.0842 126.813 48.1237 127.135 48.2028C127.458 48.2819 127.722 48.3884 127.929 48.5222L127.555 49.2157C127.16 48.9602 126.694 48.8324 126.159 48.8324C125.788 48.8324 125.505 48.8933 125.31 49.0149C125.116 49.1366 125.018 49.2978 125.018 49.4986C125.018 49.6567 125.073 49.7814 125.183 49.8727C125.292 49.9639 125.426 50.0309 125.584 50.0734C125.748 50.116 125.976 50.1647 126.268 50.2194C126.658 50.2864 126.971 50.3594 127.208 50.4384C127.452 50.5114 127.659 50.6392 127.829 50.8217C127.999 51.0042 128.084 51.2597 128.084 51.5882C128.084 52.0262 127.896 52.376 127.519 52.6376C127.148 52.8931 126.64 53.0208 125.995 53.0208ZM131.725 52.6832C131.597 52.7927 131.439 52.8779 131.251 52.9387C131.062 52.9934 130.867 53.0208 130.667 53.0208C130.18 53.0208 129.803 52.89 129.535 52.6284C129.267 52.3669 129.134 51.9927 129.134 51.5061V47.0713H130.01V48.1298H131.397V48.8507H130.01V51.4696C130.01 51.7311 130.073 51.9319 130.201 52.0718C130.335 52.2117 130.524 52.2817 130.767 52.2817C131.035 52.2817 131.263 52.2056 131.451 52.0536L131.725 52.6832ZM134.69 53.0208C134.21 53.0208 133.778 52.9144 133.394 52.7014C133.011 52.4885 132.71 52.1965 132.491 51.8254C132.278 51.4483 132.172 51.0224 132.172 50.5479C132.172 50.0734 132.278 49.6506 132.491 49.2796C132.71 48.9024 133.011 48.6104 133.394 48.4036C133.778 48.1906 134.21 48.0842 134.69 48.0842C135.171 48.0842 135.6 48.1906 135.977 48.4036C136.36 48.6104 136.658 48.9024 136.871 49.2796C137.09 49.6506 137.2 50.0734 137.2 50.5479C137.2 51.0224 137.09 51.4483 136.871 51.8254C136.658 52.1965 136.36 52.4885 135.977 52.7014C135.6 52.9144 135.171 53.0208 134.69 53.0208ZM134.69 52.2543C135 52.2543 135.277 52.1844 135.521 52.0444C135.77 51.8984 135.965 51.6977 136.105 51.4422C136.245 51.1806 136.314 50.8825 136.314 50.5479C136.314 50.2134 136.245 49.9183 136.105 49.6628C135.965 49.4012 135.77 49.2005 135.521 49.0606C135.277 48.9206 135 48.8507 134.69 48.8507C134.38 48.8507 134.1 48.9206 133.851 49.0606C133.607 49.2005 133.413 49.4012 133.267 49.6628C133.127 49.9183 133.057 50.2134 133.057 50.5479C133.057 50.8825 133.127 51.1806 133.267 51.4422C133.413 51.6977 133.607 51.8984 133.851 52.0444C134.1 52.1844 134.38 52.2543 134.69 52.2543ZM135.32 47.3998C135.174 47.3998 135.046 47.3694 134.937 47.3086C134.833 47.2477 134.702 47.1565 134.544 47.0348C134.453 46.9496 134.374 46.8888 134.307 46.8523C134.24 46.8097 134.173 46.7884 134.106 46.7884C133.972 46.7884 133.863 46.8401 133.778 46.9436C133.693 47.0409 133.647 47.1778 133.641 47.3542H133.148C133.16 47.0135 133.245 46.7428 133.404 46.5421C133.568 46.3413 133.781 46.2409 134.042 46.2409C134.188 46.2409 134.316 46.2744 134.426 46.3413C134.541 46.4021 134.672 46.4934 134.818 46.6151C134.921 46.7002 135.004 46.7641 135.064 46.8067C135.125 46.8432 135.189 46.8614 135.256 46.8614C135.39 46.8614 135.499 46.8128 135.584 46.7154C135.67 46.6181 135.715 46.4843 135.721 46.3139H136.214C136.202 46.6424 136.114 46.9071 135.949 47.1078C135.791 47.3025 135.581 47.3998 135.32 47.3998ZM140.592 52.2543C141.17 52.2543 141.635 52.0596 141.988 51.6703L142.463 52.2361C142.25 52.4916 141.979 52.6862 141.65 52.8201C141.328 52.9539 140.966 53.0208 140.565 53.0208C140.054 53.0208 139.6 52.9174 139.205 52.7106C138.81 52.4976 138.502 52.2026 138.283 51.8254C138.07 51.4483 137.964 51.0224 137.964 50.5479C137.964 50.0795 138.067 49.6567 138.274 49.2796C138.487 48.9024 138.776 48.6104 139.141 48.4036C139.512 48.1906 139.929 48.0842 140.391 48.0842C140.829 48.0842 141.228 48.1846 141.587 48.3853C141.945 48.58 142.231 48.8568 142.444 49.2157C142.657 49.5746 142.767 49.9883 142.773 50.4567L138.931 51.2049C139.053 51.5395 139.257 51.7981 139.543 51.9806C139.835 52.1631 140.184 52.2543 140.592 52.2543ZM140.391 48.8233C140.087 48.8233 139.813 48.8933 139.57 49.0332C139.333 49.1731 139.147 49.3708 139.013 49.6263C138.879 49.8757 138.813 50.1677 138.813 50.5023V50.5936L141.906 50.0096C141.827 49.6567 141.65 49.3708 141.377 49.1518C141.103 48.9328 140.774 48.8233 140.391 48.8233ZM145.385 53.0208C144.99 53.0208 144.61 52.9691 144.245 52.8657C143.88 52.7562 143.594 52.6193 143.387 52.4551L143.752 51.7616C143.965 51.9136 144.223 52.0353 144.528 52.1266C144.832 52.2178 145.139 52.2634 145.449 52.2634C146.216 52.2634 146.599 52.0444 146.599 51.6064C146.599 51.4604 146.547 51.3449 146.444 51.2597C146.34 51.1745 146.21 51.1137 146.051 51.0772C145.899 51.0346 145.68 50.989 145.394 50.9403C145.005 50.8795 144.686 50.8095 144.436 50.7304C144.193 50.6514 143.983 50.5175 143.807 50.3289C143.63 50.1404 143.542 49.8757 143.542 49.5351C143.542 49.0971 143.725 48.7473 144.09 48.4857C144.455 48.218 144.944 48.0842 145.559 48.0842C145.881 48.0842 146.204 48.1237 146.526 48.2028C146.848 48.2819 147.113 48.3884 147.32 48.5222L146.946 49.2157C146.55 48.9602 146.085 48.8324 145.55 48.8324C145.179 48.8324 144.896 48.8933 144.701 49.0149C144.506 49.1366 144.409 49.2978 144.409 49.4986C144.409 49.6567 144.464 49.7814 144.573 49.8727C144.683 49.9639 144.817 50.0309 144.975 50.0734C145.139 50.116 145.367 50.1647 145.659 50.2194C146.048 50.2864 146.362 50.3594 146.599 50.4384C146.842 50.5114 147.049 50.6392 147.219 50.8217C147.39 51.0042 147.475 51.2597 147.475 51.5882C147.475 52.0262 147.286 52.376 146.909 52.6376C146.538 52.8931 146.03 53.0208 145.385 53.0208Z" fill="#E664BC"/>
<circle opacity="0.2" cx="47.0124" cy="37.7888" r="17.289" fill="#FA84D4"/>
<path opacity="0.6" d="M39.0025 15.9307C33.8654 17.8133 29.5556 21.445 26.8293 26.1886C24.1031 30.9321 23.1347 36.4843 24.0942 41.8707C25.0536 47.2571 27.8795 52.1334 32.0759 55.6439C36.2723 59.1544 41.5711 61.0747 47.0423 61.0678C52.5134 61.0608 57.8073 59.1271 61.9948 55.606C66.1824 52.0849 68.9959 47.2014 69.9417 41.8126C70.8874 36.4238 69.905 30.8741 67.1668 26.1375C64.4285 21.4009 60.1095 17.78 54.9677 15.9104" stroke="#FFCBF5" stroke-width="2.48864" stroke-linecap="round" stroke-linejoin="round"/>
<path d="M54.9401 15.855C60.3385 17.83 64.8153 21.7325 67.5083 26.8109C70.2014 31.8893 70.9203 37.7846 69.5266 43.3613C68.1329 48.9381 64.7252 53.8021 59.9597 57.0165C55.1942 60.231 49.4079 61.5686 43.7151 60.7718" stroke="#FA84D4" stroke-width="2.48864" stroke-linecap="round" stroke-linejoin="round"/>
<circle cx="47.0123" cy="14.0584" r="5.76301" fill="white"/>
<path opacity="0.3" fill-rule="evenodd" clip-rule="evenodd" d="M55.613 38.4451C55.613 38.2836 55.482 38.1526 55.3204 38.1526H44.0082C42.177 38.1526 40.6925 39.6371 40.6925 41.4682C40.6925 43.2994 42.177 44.7839 44.0082 44.7839H55.3204C55.482 44.7839 55.613 44.6529 55.613 44.4914V38.4451ZM44.8371 41.4682C44.8371 42.3838 44.0949 43.126 43.1793 43.126C42.2637 43.126 41.5214 42.3838 41.5214 41.4682C41.5214 40.5526 42.2637 39.8104 43.1793 39.8104C44.0949 39.8104 44.8371 40.5526 44.8371 41.4682Z" fill="#FA84D4"/>
<path opacity="0.3" fill-rule="evenodd" clip-rule="evenodd" d="M49.2947 31.1362C49.1804 31.022 48.9952 31.022 48.881 31.1362L40.882 39.1352C39.5871 40.43 39.5871 42.5294 40.882 43.8242C42.1768 45.1191 44.2762 45.1191 45.571 43.8242L53.57 35.8253C53.6843 35.711 53.6843 35.5258 53.57 35.4115L49.2947 31.1362ZM44.837 41.4682C44.837 42.3838 44.0947 43.1261 43.1791 43.1261C42.2635 43.1261 41.5213 42.3838 41.5213 41.4682C41.5213 40.5526 42.2635 39.8104 43.1791 39.8104C44.0947 39.8104 44.837 40.5526 44.837 41.4682Z" fill="#FA84D4"/>
<path fill-rule="evenodd" clip-rule="evenodd" d="M40.1562 29.8635C39.9946 29.8635 39.8636 29.9945 39.8636 30.1561V41.4683C39.8636 43.2995 41.3481 44.784 43.1793 44.784C45.0105 44.784 46.495 43.2995 46.495 41.4683V30.1561C46.495 29.9945 46.364 29.8635 46.2024 29.8635H40.1562ZM44.837 41.4683C44.837 42.3839 44.0947 43.1261 43.1791 43.1261C42.2635 43.1261 41.5213 42.3839 41.5213 41.4683C41.5213 40.5527 42.2635 39.8105 43.1791 39.8105C44.0947 39.8105 44.837 40.5527 44.837 41.4683Z" fill="#FA84D4"/>
<path opacity="0.34" fill-rule="evenodd" clip-rule="evenodd" d="M47.0124 16.055L45.1909 17.0557C44.9729 17.1755 44.7032 17.0879 44.5886 16.8601C44.543 16.7694 44.5272 16.6655 44.5438 16.5645L44.8917 14.4449L43.4181 12.9438C43.2417 12.7642 43.2381 12.4691 43.41 12.2848C43.4785 12.2114 43.5682 12.1637 43.6652 12.1489L45.7017 11.8397L46.6124 9.91126C46.7215 9.68045 46.9889 9.58569 47.2097 9.6996C47.2977 9.74496 47.3689 9.81935 47.4123 9.91126L48.323 11.8397L50.3595 12.1489C50.6032 12.1859 50.7721 12.4224 50.7367 12.6771C50.7226 12.7786 50.6769 12.8723 50.6067 12.9438L49.133 14.4449L49.4809 16.5645C49.5226 16.8181 49.3595 17.0591 49.1168 17.1026C49.0201 17.1199 48.9207 17.1034 48.8338 17.0557L47.0124 16.055Z" fill="#FA84D4"/>
</g>
<defs>
<filter id="filter0_d_1_160" x="0" y="0" width="297.898" height="93" filterUnits="userSpaceOnUse" color-interpolation-filters="sRGB">
<feFlood flood-opacity="0" result="BackgroundImageFix"/>
<feColorMatrix in="SourceAlpha" type="matrix" values="0 0 0 0 0 0 0 0 0 0 0 0 0 0 0 0 0 0 127 0" result="hardAlpha"/>
<feOffset dy="10"/>
<feGaussianBlur stdDeviation="5"/>
<feColorMatrix type="matrix" values="0 0 0 0 0.8 0 0 0 0 0.82 0 0 0 0 1 0 0 0 0.2 0"/>
<feBlend mode="normal" in2="BackgroundImageFix" result="effect1_dropShadow_1_160"/>
<feBlend mode="normal" in="SourceGraphic" in2="effect1_dropShadow_1_160" result="shape"/>
</filter>
</defs>
</svg>
