<svg width="124" height="88" viewBox="0 0 124 88" fill="none" xmlns="http://www.w3.org/2000/svg">
<rect x="0.000244141" width="124" height="88" rx="12" fill="#7683F6"/>
<rect opacity="0.6" x="16.0002" y="33.9199" width="13.7035" height="5.62698" rx="1.5" transform="rotate(-90 16.0002 33.9199)" fill="white"/>
<rect opacity="0.4" x="31.0054" y="33.9199" width="9.48706" height="5.62699" rx="1.5" transform="rotate(-90 31.0054 33.9199)" fill="white"/>
<path d="M25.0032 33.9199C24.1747 33.9199 23.5032 33.2483 23.5032 32.4199L23.5032 17.4999C23.5032 16.6715 24.1747 15.9999 25.0032 15.9999L27.6302 15.9999C28.4586 15.9999 29.1302 16.6715 29.1302 17.4999L29.1302 32.4199C29.1302 33.2483 28.4586 33.9199 27.6302 33.9199L25.0032 33.9199Z" fill="white"/>
<path d="M18.3875 69H19.6205V65.0227H21.8477C21.9372 65.0227 22.0217 65.0227 22.1062 65.0178L24.254 69H25.6858L23.3839 64.794C24.6815 64.3516 25.2881 63.2926 25.2881 61.9403C25.2881 60.1406 24.2142 58.8182 21.8278 58.8182H18.3875V69ZM19.6205 63.9091V59.9119H21.7881C23.4386 59.9119 24.075 60.7173 24.075 61.9403C24.075 63.1634 23.4386 63.9091 21.808 63.9091H19.6205ZM29.4306 69.179C30.763 69.179 31.4591 68.4631 31.6977 67.9659H31.7573V69H32.9306V63.9688C32.9306 61.5426 31.0812 61.2642 30.1068 61.2642C28.9534 61.2642 27.6409 61.6619 27.0443 63.054L28.1579 63.4517C28.4164 62.8949 29.0279 62.2983 30.1466 62.2983C31.2254 62.2983 31.7573 62.87 31.7573 63.8494V63.8892C31.7573 64.456 31.1806 64.4062 29.7886 64.5852C28.3717 64.7692 26.8255 65.0824 26.8255 66.8324C26.8255 68.3239 27.9789 69.179 29.4306 69.179ZM29.6096 68.125C28.675 68.125 27.9988 67.7074 27.9988 66.892C27.9988 65.9972 28.8142 65.7188 29.7289 65.5994C30.2261 65.5398 31.5585 65.4006 31.7573 65.1619V66.2358C31.7573 67.1903 31.0017 68.125 29.6096 68.125ZM36.2455 64.4062C36.2455 63.0739 37.0707 62.3182 38.1943 62.3182C39.2831 62.3182 39.9443 63.0291 39.9443 64.2273V69H41.1176V64.1477C41.1176 62.1989 40.0785 61.2642 38.5324 61.2642C37.379 61.2642 36.6631 61.7812 36.3051 62.5568H36.2057V61.3636H35.0722V69H36.2455V64.4062ZM43.2616 69H44.4349V66.1413L45.2552 65.3807L48.1139 69H49.6054L46.1402 64.625L49.3667 61.3636H47.915L44.5741 64.7642H44.4349V58.8182H43.2616V69ZM50.8768 69H52.0501V61.3636H50.8768V69ZM51.4734 60.0909C51.9308 60.0909 52.3087 59.733 52.3087 59.2955C52.3087 58.858 51.9308 58.5 51.4734 58.5C51.016 58.5 50.6382 58.858 50.6382 59.2955C50.6382 59.733 51.016 60.0909 51.4734 60.0909ZM55.3724 64.4062C55.3724 63.0739 56.1977 62.3182 57.3213 62.3182C58.41 62.3182 59.0713 63.0291 59.0713 64.2273V69H60.2446V64.1477C60.2446 62.1989 59.2055 61.2642 57.6593 61.2642C56.5059 61.2642 55.79 61.7812 55.4321 62.5568H55.3326V61.3636H54.1991V69H55.3724V64.4062ZM65.4709 72.0227C67.3005 72.0227 68.7721 71.1875 68.7721 69.2188V61.3636H67.6386V62.5767H67.5192C67.2607 62.179 66.7834 61.2642 65.292 61.2642C63.363 61.2642 62.0306 62.7955 62.0306 65.142C62.0306 67.5284 63.4227 68.8807 65.2721 68.8807C66.7636 68.8807 67.2408 68.0057 67.4994 67.5881H67.5988V69.1392C67.5988 70.4119 66.7039 70.9886 65.4709 70.9886C64.0839 70.9886 63.5967 70.2578 63.2834 69.8352L62.3488 70.4915C62.8261 71.2919 63.7657 72.0227 65.4709 72.0227ZM65.4312 67.8267C63.9596 67.8267 63.2039 66.7131 63.2039 65.1222C63.2039 63.571 63.9397 62.3182 65.4312 62.3182C66.863 62.3182 67.6187 63.4716 67.6187 65.1222C67.6187 66.8125 66.8431 67.8267 65.4312 67.8267Z" fill="white"/>
</svg>
