<svg width="40" height="40" viewBox="0 0 40 40" fill="none" xmlns="http://www.w3.org/2000/svg">
<rect opacity="0.7" width="40" height="40" rx="12" fill="#EBEDFF"/>
<path d="M27.36 12H12.64C12.286 12 12 12.286 12 12.64V27.36C12 27.714 12.286 28 12.64 28H27.36C27.714 28 28 27.714 28 27.36V12.64C28 12.286 27.714 12 27.36 12ZM16.746 25.634H14.372V17.998H16.746V25.634ZM15.56 16.954C15.2879 16.954 15.0218 16.8733 14.7955 16.7221C14.5693 16.5709 14.3929 16.356 14.2887 16.1046C14.1846 15.8531 14.1573 15.5765 14.2104 15.3096C14.2635 15.0426 14.3946 14.7975 14.587 14.605C14.7795 14.4126 15.0246 14.2815 15.2916 14.2284C15.5585 14.1753 15.8351 14.2026 16.0866 14.3067C16.338 14.4109 16.5529 14.5873 16.7041 14.8135C16.8553 15.0398 16.936 15.3059 16.936 15.578C16.934 16.338 16.318 16.954 15.56 16.954ZM25.634 25.634H23.262V21.92C23.262 21.034 23.246 19.896 22.028 19.896C20.794 19.896 20.604 20.86 20.604 21.856V25.634H18.234V17.998H20.51V19.042H20.542C20.858 18.442 21.632 17.808 22.788 17.808C25.192 17.808 25.634 19.39 25.634 21.446V25.634Z" fill="#7683F6"/>
</svg>
