<svg width="20" height="20" viewBox="0 0 20 20" fill="none" xmlns="http://www.w3.org/2000/svg">
<path opacity="0.6" fill-rule="evenodd" clip-rule="evenodd" d="M4.74856 10.7881C2.67702 10.7897 0.998896 12.4701 1 14.5416C1.00111 16.6132 2.68102 18.2918 4.75256 18.2912C6.8241 18.2907 8.50313 16.6112 8.50313 14.5396C8.50286 13.5442 8.10711 12.5897 7.40296 11.8861C6.69882 11.1825 5.74398 10.7876 4.74856 10.7881Z" stroke="#00AEFF" stroke-width="2"/>
<path fill-rule="evenodd" clip-rule="evenodd" d="M15.247 10.7881C13.1754 10.7897 11.4973 12.4701 11.4984 14.5416C11.4995 16.6132 13.1794 18.2918 15.251 18.2912C17.3225 18.2907 19.0015 16.6112 19.0015 14.5396C19.0013 13.5442 18.6055 12.5897 17.9014 11.8861C17.1972 11.1825 16.2424 10.7876 15.247 10.7881V10.7881Z" stroke="#00AEFF" stroke-width="2"/>
<path opacity="0.8" fill-rule="evenodd" clip-rule="evenodd" d="M9.99771 1.7085C7.92617 1.71015 6.24804 3.39052 6.24915 5.46206C6.25025 7.5336 7.93017 9.21217 10.0017 9.21162C12.0732 9.21107 13.7523 7.5316 13.7523 5.46006C13.752 4.46464 13.3563 3.51012 12.6521 2.80654C11.948 2.10295 10.9931 1.70797 9.99771 1.7085Z" stroke="#00AEFF" stroke-width="2"/>
</svg>
