<svg width="174" height="67" viewBox="0 0 174 67" fill="none" xmlns="http://www.w3.org/2000/svg">
<rect x="2.75" y="2.75" width="158.5" height="62.5" fill="#DAD0FF" fill-opacity="0.3" stroke="#C8B9FF" stroke-width="1.5"/>
<rect x="80" width="4.39344" height="4.39344" fill="#C8B9FF"/>
<rect x="80" y="62.6064" width="4.39344" height="4.39344" fill="#C8B9FF"/>
<rect x="158.377" width="4.39344" height="4.39344" fill="#C8B9FF"/>
<rect x="158.377" y="62.6064" width="4.39344" height="4.39344" fill="#C8B9FF"/>
<rect width="4.39344" height="4.39344" fill="#C8B9FF"/>
<rect y="62.6064" width="4.39344" height="4.39344" fill="#C8B9FF"/>
<path d="M172.914 51.3063L159.119 46.166C159.021 46.1292 158.914 46.1213 158.811 46.1433C158.708 46.1654 158.614 46.2164 158.539 46.2904C158.465 46.3644 158.413 46.4583 158.39 46.5608C158.367 46.6634 158.374 46.7703 158.411 46.869L163.578 60.6863C163.618 60.7934 163.691 60.8852 163.786 60.949C163.88 61.0129 163.993 61.0456 164.107 61.0426C164.221 61.0396 164.332 61.001 164.423 60.9322C164.514 60.8634 164.582 60.7679 164.616 60.6589L166.094 55.8536L171.102 60.7413C171.205 60.8436 171.344 60.901 171.489 60.901C171.634 60.901 171.774 60.8436 171.876 60.7413L173.167 59.4507C173.269 59.3478 173.327 59.2086 173.327 59.0635C173.327 58.9184 173.269 58.7792 173.167 58.6763L168.175 53.8106L172.914 52.3443C173.022 52.307 173.116 52.2369 173.182 52.1439C173.248 52.0509 173.284 51.9395 173.284 51.8253C173.284 51.7111 173.248 51.5998 173.182 51.5068C173.116 51.4138 173.022 51.3437 172.914 51.3063Z" fill="#FA84D4"/>
</svg>
