<svg width="40" height="40" viewBox="0 0 40 40" fill="none" xmlns="http://www.w3.org/2000/svg">
<rect opacity="0.7" width="40" height="40" rx="12" fill="#EBEDFF"/>
<path fill-rule="evenodd" clip-rule="evenodd" d="M23.2333 12H16.7659C15.5023 12.0015 14.2908 12.5042 13.3973 13.3978C12.5038 14.2915 12.0013 15.5031 12 16.7667V23.2341C12.0015 24.4977 12.5042 25.7092 13.3978 26.6027C14.2915 27.4962 15.5031 27.9987 16.7667 28H23.2341C24.4977 27.9985 25.7092 27.4958 26.6027 26.6022C27.4962 25.7085 27.9987 24.4969 28 23.2333V16.7659C27.9985 15.5023 27.4958 14.2908 26.6022 13.3973C25.7085 12.5038 24.4969 12.0013 23.2333 12ZM26.3908 23.2333C26.3908 23.6479 26.3091 24.0585 26.1504 24.4416C25.9918 24.8247 25.7592 25.1728 25.466 25.466C25.1728 25.7592 24.8247 25.9918 24.4416 26.1504C24.0585 26.3091 23.6479 26.3908 23.2333 26.3908H16.7659C15.9287 26.3906 15.1257 26.0578 14.5338 25.4657C13.9418 24.8736 13.6092 24.0705 13.6092 23.2333V16.7659C13.6094 15.9287 13.9422 15.1257 14.5343 14.5338C15.1264 13.9418 15.9295 13.6092 16.7667 13.6092H23.2341C24.0713 13.6094 24.8743 13.9422 25.4662 14.5343C26.0582 15.1264 26.3908 15.9295 26.3908 16.7667V23.2333ZM19.9997 15.8616C18.9029 15.8633 17.8516 16.2998 17.0761 17.0754C16.3006 17.851 15.8643 18.9024 15.8629 19.9992C15.8641 21.0963 16.3004 22.148 17.0761 22.9238C17.8518 23.6997 18.9034 24.1362 20.0005 24.1377C21.0977 24.1364 22.1496 23.7 22.9254 22.9241C23.7012 22.1483 24.1377 21.0964 24.1389 19.9992C24.1372 18.9022 23.7005 17.8506 22.9246 17.0751C22.1486 16.2995 21.0967 15.8634 19.9997 15.8624V15.8616ZM19.9997 22.5284C19.3291 22.5284 18.686 22.2621 18.2118 21.7879C17.7377 21.3137 17.4713 20.6706 17.4713 20C17.4713 19.3294 17.7377 18.6863 18.2118 18.2121C18.686 17.738 19.3291 17.4716 19.9997 17.4716C20.6703 17.4716 21.3134 17.738 21.7876 18.2121C22.2617 18.6863 22.5281 19.3294 22.5281 20C22.5281 20.6706 22.2617 21.3137 21.7876 21.7879C21.3134 22.2621 20.6703 22.5284 19.9997 22.5284ZM25.1374 15.8932C25.1374 16.4407 24.6936 16.8845 24.1461 16.8845C23.5986 16.8845 23.1547 16.4407 23.1547 15.8932C23.1547 15.3457 23.5986 14.9019 24.1461 14.9019C24.6936 14.9019 25.1374 15.3457 25.1374 15.8932Z" fill="#7683F6"/>
</svg>
