<svg width="100" height="64" viewBox="0 0 100 64" fill="none" xmlns="http://www.w3.org/2000/svg">
<path d="M90.5292 4.02245C90.5292 1.60121 92.1933 0 94.564 0C96.9347 0 98.5741 1.60121 98.5741 4.02245C98.5741 6.44369 96.91 8.04491 94.5711 8.04491C92.2321 8.04491 90.5292 6.44369 90.5292 4.02245Z" fill="#FA84D4"/>
<path d="M16.6561 13.9121C19.0814 13.9121 21.2804 14.4786 23.2531 15.6117C25.258 16.7124 26.8265 18.2825 27.9583 20.3219C29.0901 22.3291 29.6561 24.6761 29.6561 27.3631C29.6561 30.05 29.0901 32.4132 27.9583 34.4527C26.8265 36.4598 25.258 38.0299 23.2531 39.163C21.2804 40.2637 19.0814 40.814 16.6561 40.814C13.3252 40.814 10.7058 39.7619 8.79787 37.6576V49.846H1.23071V15.9999C1.23071 15.0614 1.99152 14.3006 2.93001 14.3006H8.45832V17.3113C10.3339 15.0452 13.0665 13.9121 16.6561 13.9121ZM15.3464 34.5984C17.2867 34.5984 18.8712 33.9509 20.1001 32.656C21.3613 31.3287 21.9919 29.5644 21.9919 27.3631C21.9919 25.1617 21.3613 23.4136 20.1001 22.1186C18.8712 20.7914 17.2867 20.1277 15.3464 20.1277C13.4061 20.1277 11.8053 20.7914 10.5441 22.1186C9.31528 23.4136 8.70085 25.1617 8.70085 27.3631C8.70085 29.5644 9.31528 31.3287 10.5441 32.656C11.8053 33.9509 13.4061 34.5984 15.3464 34.5984Z" fill="#623CEA"/>
<path d="M45.8046 40.4605C42.8358 40.4605 40.5196 39.6824 38.8558 38.1264C37.192 36.5379 36.3601 34.3011 36.3601 31.4159V5.68954C36.3601 4.75104 37.1209 3.99023 38.0594 3.99023H43.994V30.9782C43.994 32.0804 44.2713 32.9395 44.8259 33.5554C45.4131 34.139 46.2287 34.4307 47.2726 34.4307C47.6641 34.4307 48.0556 34.3821 48.447 34.2848C48.8712 34.1876 49.1974 34.0741 49.4257 33.9445L49.7683 39.8283C48.496 40.2498 47.1747 40.4605 45.8046 40.4605Z" fill="#623CEA"/>
<path d="M83.0205 13.9121V40.0713H75.8111V36.9594C74.8044 38.094 73.6028 38.9692 72.2064 39.5851C70.81 40.1686 69.2999 40.4603 67.6762 40.4603C64.2338 40.4603 61.506 39.4716 59.4925 37.4943C57.4791 35.517 56.4724 32.5834 56.4724 28.6935V15.6114C56.4724 14.6729 57.2332 13.9121 58.1717 13.9121H64.0715V27.5752C64.0715 31.7892 65.8413 33.8962 69.3811 33.8962C71.1997 33.8962 72.6611 33.3127 73.7652 32.1458C74.8694 30.9464 75.4214 29.1798 75.4214 26.8458V15.6114C75.4214 14.6729 76.1822 13.9121 77.1207 13.9121H83.0205Z" fill="#623CEA"/>
<path d="M90.7974 15.8797C90.7974 14.9412 91.5582 14.1804 92.4967 14.1804H98.306V40.4605H90.7974V15.8797Z" fill="#623CEA"/>
<rect x="1.73071" y="0.5" width="96.8462" height="49.4615" stroke="#C8B9FF"/>
<rect x="0.5" y="49.731" width="1.46154" height="1.46154" fill="white" stroke="#C8B9FF"/>
<rect x="97.7307" y="49.731" width="1.46154" height="1.46154" fill="white" stroke="#C8B9FF"/>
<path d="M80.7692 58.9233L75.6923 64.0002L77.0769 49.231L87.6923 58.9233H80.7692Z" fill="#FF9BE3"/>
</svg>
