<svg width="35" height="35" viewBox="0 0 35 35" fill="none" xmlns="http://www.w3.org/2000/svg">
<circle opacity="0.7" cx="17.5" cy="17.5" r="17.5" fill="#EBEDFF"/>
<path opacity="0.3" fill-rule="evenodd" clip-rule="evenodd" d="M12.6667 10H22.6667L24.3333 12.9167H11L12.6667 10Z" fill="#7683F6"/>
<path fill-rule="evenodd" clip-rule="evenodd" d="M13 11.6667C11.8954 11.6667 11 12.5621 11 13.6667V23C11 24.1046 11.8954 25 13 25H22.3333C23.4379 25 24.3333 24.1046 24.3333 23V13.6667C24.3333 12.5621 23.4379 11.6667 22.3333 11.6667H13ZM15.1667 15C14.7064 15 14.3333 15.3731 14.3333 15.8333C14.3333 16.2936 14.7064 16.6667 15.1667 16.6667H20.1667C20.6269 16.6667 21 16.2936 21 15.8333C21 15.3731 20.6269 15 20.1667 15H15.1667Z" fill="#7683F6"/>
</svg>
