<svg width="52" height="6" viewBox="0 0 52 6" fill="none" xmlns="http://www.w3.org/2000/svg">
<path d="M35.3566 2.90286L35.3567 2.90284L35.3844 2.87747C35.743 2.54913 36.136 2.18929 36.615 1.9243C37.131 1.6388 37.7205 1.47429 38.4742 1.47429C39.2279 1.47429 39.8174 1.6388 40.3335 1.92431C40.8125 2.18934 41.2055 2.54924 41.5641 2.87763L41.5916 2.90282C41.5916 2.90284 41.5917 2.90286 41.5917 2.90288C42.4103 3.65206 43.1843 4.35137 44.7608 4.35137C46.3377 4.35137 47.1118 3.65199 47.9304 2.90283L47.9304 2.9028L47.9582 2.87732C48.3169 2.54902 48.7099 2.18924 49.1888 1.92428C49.7049 1.63879 50.2945 1.47429 51.0483 1.47429C51.0694 1.47429 51.0866 1.4571 51.0866 1.43598C51.0866 1.41492 51.0693 1.39768 51.0483 1.39768C49.4715 1.39768 48.6973 2.09707 47.8787 2.84622L47.8787 2.84625L47.8509 2.87173C47.4922 3.20003 47.0992 3.55981 46.6203 3.82476C46.1042 4.11026 45.5146 4.27476 44.7608 4.27476C44.0071 4.27476 43.4176 4.11025 42.9016 3.82476C42.4228 3.55982 42.0299 3.20008 41.6714 2.87185L41.6435 2.84634L41.6435 2.84631C40.8249 2.09703 40.0508 1.39768 38.4742 1.39768C36.8976 1.39768 36.1235 2.09703 35.305 2.84631L35.3049 2.84634L35.277 2.87186C34.9185 3.20009 34.5256 3.55983 34.0468 3.82476C33.5308 4.11026 32.9412 4.27476 32.1875 4.27476C31.4339 4.27476 30.8443 4.11025 30.3284 3.82476C29.8494 3.55978 29.4564 3.19998 29.0979 2.87169L29.0702 2.84634L29.0702 2.84631C28.2516 2.09701 27.4776 1.39768 25.901 1.39768C24.3245 1.39768 23.5505 2.09702 22.7321 2.84627L22.732 2.84634L22.7041 2.87186C22.3456 3.20008 21.9527 3.55982 21.4739 3.82476C20.9579 4.11025 20.3684 4.27476 19.6147 4.27476C18.8611 4.27476 18.2717 4.11029 17.7558 3.82478C17.2769 3.55977 16.8839 3.19989 16.5254 2.87151L16.4979 2.84631C15.6793 2.09708 14.9054 1.39768 13.3291 1.39768C11.7526 1.39768 10.9785 2.09702 10.1601 2.84627L10.1601 2.84634C10.1508 2.85483 10.1415 2.86334 10.1322 2.87187C9.77368 3.20009 9.38078 3.55982 8.90198 3.82475C8.38601 4.11025 7.79653 4.27476 7.04289 4.27476C6.2892 4.27476 5.69966 4.11025 5.18364 3.82474C4.70462 3.5597 4.31159 3.1998 3.95298 2.8714C3.94379 2.86299 3.93462 2.85459 3.92548 2.84622L35.3566 2.90286ZM35.3566 2.90286C34.5382 3.65201 33.7641 4.35137 32.1875 4.35137M35.3566 2.90286L32.1875 4.35137M32.1875 4.35137C30.6109 4.35137 29.8369 3.65203 29.0183 2.90282M32.1875 4.35137L29.0183 2.90282M29.0183 2.90282L28.9906 2.87748C28.6321 2.54915 28.2391 2.18931 27.7602 1.92432C27.2442 1.6388 26.6547 1.47429 25.901 1.47429C25.1474 1.47429 24.5579 1.6388 24.0419 1.92432C23.563 2.18932 23.1701 2.54916 22.8115 2.8775L22.7838 2.90286C22.7838 2.90287 22.7838 2.90287 22.7838 2.90288C21.9654 3.65202 21.1913 4.35137 19.6147 4.35137C18.0384 4.35137 17.2646 3.65211 16.4461 2.90292C16.4461 2.9029 16.4461 2.90288 16.4461 2.90286L16.4185 2.87764C16.06 2.54927 15.667 2.18937 15.1881 1.92434C14.6722 1.63881 14.0827 1.47429 13.3291 1.47429C12.5755 1.47429 11.986 1.6388 11.47 1.92432C10.9911 2.18932 10.5982 2.54915 10.2396 2.87748L29.0183 2.90282ZM3.84591 2.87749C3.85516 2.88595 3.86438 2.8944 3.87358 2.90282L3.84591 2.87749ZM3.84591 2.87749C3.48736 2.54915 3.09441 2.18931 2.61551 1.92432M3.84591 2.87749L2.61551 1.92432M2.61551 1.92432C2.09951 1.6388 1.50999 1.47429 0.756297 1.47429M2.61551 1.92432L0.756297 1.47429M0.756297 1.47429C0.735153 1.47429 0.717992 1.4571 0.717992 1.43598M0.756297 1.47429L0.717992 1.43598M0.717992 1.43598C0.717992 1.41492 0.735231 1.39768 0.756297 1.39768M0.717992 1.43598L0.756297 1.39768M0.756297 1.39768C2.33278 1.39768 3.10682 2.09699 3.92542 2.84617L0.756297 1.39768ZM10.2119 2.90288C9.39344 3.65203 8.61939 4.35137 7.04289 4.35137C5.46628 4.35137 4.69222 3.65205 3.87364 2.90288L10.2119 2.90288Z" stroke="#FFD569" stroke-width="1.43598"/>
</svg>
