<svg width="262" height="95" viewBox="0 0 262 95" fill="none" xmlns="http://www.w3.org/2000/svg">
<path d="M156.663 26.2381C158.125 24.5678 161.674 21.2271 164.179 21.2271" stroke="#FFCBF5" stroke-width="2.76923" stroke-linecap="round" stroke-linejoin="round"/>
<path d="M135.784 33.7545C134.322 32.0842 130.773 28.7435 128.267 28.7435" stroke="#FF9BB3" stroke-width="2.76923" stroke-linecap="round" stroke-linejoin="round"/>
<path d="M171.696 53.833C173.366 53.6358 177.375 54.188 180.048 57.9743" stroke="#4FF7F7" stroke-width="2.76923" stroke-linecap="round" stroke-linejoin="round"/>
<path d="M85.6652 36.2601C80.2842 33.9153 81.2415 25.1223 89.8498 27.4671" stroke="#BEC5FF" stroke-width="2.76923" stroke-linecap="round" stroke-linejoin="round"/>
<path d="M117.121 18.7217C117.957 18.0839 116.911 13.9172 114.905 7.02936" stroke="#FDE8A0" stroke-width="2.76923" stroke-linecap="round" stroke-linejoin="round"/>
<circle cx="86.0915" cy="60.0622" r="2.08791" fill="#FFAAE9"/>
<circle cx="144.553" cy="10.7874" r="2.08791" fill="#FFAAE9"/>
<circle cx="171.278" cy="71.7546" r="2.08791" fill="#DAD0FF"/>
<g opacity="0.4">
<path d="M227.095 92.2857C227.095 90.7866 228.31 89.5714 229.81 89.5714C231.309 89.5714 232.524 90.7866 232.524 92.2857V95H227.095V92.2857Z" fill="#A188FC"/>
<path d="M52.4762 34.381C52.4762 32.8819 53.6914 31.6667 55.1905 31.6667C56.6895 31.6667 57.9048 32.8819 57.9048 34.381V37.0953H52.4762V34.381Z" fill="#A188FC"/>
<rect x="31.6667" y="2.71429" width="5.42857" height="5.42857" fill="#A188FC"/>
<rect x="256.048" y="43.4286" width="5.42857" height="5.42857" fill="#A188FC"/>
<path d="M221.667 43.4286C221.667 41.9295 222.882 40.7143 224.381 40.7143H227.095V43.4286C227.095 44.9276 225.88 46.1429 224.381 46.1429C222.882 46.1429 221.667 44.9276 221.667 43.4286Z" fill="#A188FC"/>
<path d="M0 51.5714C0 50.0723 1.21523 48.8571 2.71429 48.8571H5.42857V51.5714C5.42857 53.0705 4.21334 54.2857 2.71429 54.2857C1.21523 54.2857 0 53.0705 0 51.5714Z" fill="#A188FC"/>
<path d="M45.2089 92.2857H38.9048L41.9255 86.8571L45.2089 92.2857Z" fill="#A188FC"/>
<path d="M243.352 5.42857H237.048L240.068 0L243.352 5.42857Z" fill="#A188FC"/>
</g>
</svg>
