<svg width="174" height="138" viewBox="0 0 174 138" fill="none" xmlns="http://www.w3.org/2000/svg">
<g filter="url(#filter0_d_1_288)">
<rect x="25.0002" y="15" width="124" height="88" rx="12" fill="white"/>
</g>
<rect opacity="0.6" x="41.0002" y="48.9199" width="13.7035" height="5.62698" rx="1.5" transform="rotate(-90 41.0002 48.9199)" fill="#9CA5FB"/>
<rect opacity="0.4" x="56.0054" y="48.9199" width="9.48706" height="5.62699" rx="1.5" transform="rotate(-90 56.0054 48.9199)" fill="#9CA5FB"/>
<path d="M50.0033 48.9199C49.1748 48.9199 48.5033 48.2483 48.5033 47.4199L48.5033 32.4999C48.5033 31.6715 49.1748 30.9999 50.0033 30.9999L52.6303 30.9999C53.4587 30.9999 54.1303 31.6715 54.1303 32.4999L54.1303 47.4199C54.1303 48.2483 53.4587 48.9199 52.6303 48.9199L50.0033 48.9199Z" fill="#9CA5FB"/>
<path d="M43.3875 84H44.6205V80.0227H46.8477C46.9372 80.0227 47.0217 80.0227 47.1062 80.0178L49.254 84H50.6858L48.3839 79.794C49.6815 79.3516 50.2881 78.2926 50.2881 76.9403C50.2881 75.1406 49.2142 73.8182 46.8278 73.8182H43.3875V84ZM44.6205 78.9091V74.9119H46.7881C48.4386 74.9119 49.075 75.7173 49.075 76.9403C49.075 78.1634 48.4386 78.9091 46.808 78.9091H44.6205ZM54.4306 84.179C55.763 84.179 56.4591 83.4631 56.6977 82.9659H56.7573V84H57.9306V78.9688C57.9306 76.5426 56.0812 76.2642 55.1068 76.2642C53.9534 76.2642 52.6409 76.6619 52.0443 78.054L53.1579 78.4517C53.4164 77.8949 54.0279 77.2983 55.1466 77.2983C56.2254 77.2983 56.7573 77.87 56.7573 78.8494V78.8892C56.7573 79.456 56.1806 79.4062 54.7886 79.5852C53.3717 79.7692 51.8255 80.0824 51.8255 81.8324C51.8255 83.3239 52.9789 84.179 54.4306 84.179ZM54.6096 83.125C53.675 83.125 52.9988 82.7074 52.9988 81.892C52.9988 80.9972 53.8142 80.7188 54.7289 80.5994C55.2261 80.5398 56.5585 80.4006 56.7573 80.1619V81.2358C56.7573 82.1903 56.0017 83.125 54.6096 83.125ZM61.2455 79.4062C61.2455 78.0739 62.0707 77.3182 63.1943 77.3182C64.2831 77.3182 64.9443 78.0291 64.9443 79.2273V84H66.1176V79.1477C66.1176 77.1989 65.0785 76.2642 63.5324 76.2642C62.379 76.2642 61.6631 76.7812 61.3051 77.5568H61.2057V76.3636H60.0722V84H61.2455V79.4062ZM68.2616 84H69.4349V81.1413L70.2552 80.3807L73.1139 84H74.6054L71.1402 79.625L74.3667 76.3636H72.915L69.5741 79.7642H69.4349V73.8182H68.2616V84ZM75.8768 84H77.0501V76.3636H75.8768V84ZM76.4734 75.0909C76.9308 75.0909 77.3087 74.733 77.3087 74.2955C77.3087 73.858 76.9308 73.5 76.4734 73.5C76.016 73.5 75.6382 73.858 75.6382 74.2955C75.6382 74.733 76.016 75.0909 76.4734 75.0909ZM80.3724 79.4062C80.3724 78.0739 81.1977 77.3182 82.3213 77.3182C83.41 77.3182 84.0713 78.0291 84.0713 79.2273V84H85.2446V79.1477C85.2446 77.1989 84.2055 76.2642 82.6593 76.2642C81.5059 76.2642 80.79 76.7812 80.4321 77.5568H80.3326V76.3636H79.1991V84H80.3724V79.4062ZM90.4709 87.0227C92.3005 87.0227 93.7721 86.1875 93.7721 84.2188V76.3636H92.6386V77.5767H92.5192C92.2607 77.179 91.7834 76.2642 90.292 76.2642C88.363 76.2642 87.0306 77.7955 87.0306 80.142C87.0306 82.5284 88.4227 83.8807 90.2721 83.8807C91.7636 83.8807 92.2408 83.0057 92.4994 82.5881H92.5988V84.1392C92.5988 85.4119 91.7039 85.9886 90.4709 85.9886C89.0839 85.9886 88.5967 85.2578 88.2834 84.8352L87.3488 85.4915C87.8261 86.2919 88.7657 87.0227 90.4709 87.0227ZM90.4312 82.8267C88.9596 82.8267 88.2039 81.7131 88.2039 80.1222C88.2039 78.571 88.9397 77.3182 90.4312 77.3182C91.863 77.3182 92.6187 78.4716 92.6187 80.1222C92.6187 81.8125 91.8431 82.8267 90.4312 82.8267Z" fill="#9CA5FB"/>
<defs>
<filter id="filter0_d_1_288" x="0.000244141" y="0" width="174" height="138" filterUnits="userSpaceOnUse" color-interpolation-filters="sRGB">
<feFlood flood-opacity="0" result="BackgroundImageFix"/>
<feColorMatrix in="SourceAlpha" type="matrix" values="0 0 0 0 0 0 0 0 0 0 0 0 0 0 0 0 0 0 127 0" result="hardAlpha"/>
<feMorphology radius="5" operator="erode" in="SourceAlpha" result="effect1_dropShadow_1_288"/>
<feOffset dy="10"/>
<feGaussianBlur stdDeviation="15"/>
<feColorMatrix type="matrix" values="0 0 0 0 0.81 0 0 0 0 0.819 0 0 0 0 0.9 0 0 0 0.45 0"/>
<feBlend mode="normal" in2="BackgroundImageFix" result="effect1_dropShadow_1_288"/>
<feBlend mode="normal" in="SourceGraphic" in2="effect1_dropShadow_1_288" result="shape"/>
</filter>
</defs>
</svg>
