<svg width="25" height="24" viewBox="0 0 25 24" fill="none" xmlns="http://www.w3.org/2000/svg">
<path opacity="0.3" d="M10.9 2C11.4523 2 11.9 2.44772 11.9 3C11.9 3.55228 11.4523 4 10.9 4H6C4.89543 4 4 4.89543 4 6V18C4 19.1046 4.89543 20 6 20H18C19.1046 20 20 19.1046 20 18V16C20 15.4477 20.4477 15 21 15C21.5523 15 22 15.4477 22 16V18C22 20.2091 20.2091 22 18 22H6C3.79086 22 2 20.2091 2 18V6C2 3.79086 3.79086 2 6 2H10.9Z" fill="#FA84D4"/>
<path d="M7.00454 13.8974C7.00454 13.1346 6.8411 10.1246 9.21551 7.7366C10.8136 6.12945 13.2052 5.85069 16.0654 5.72357V1.83792C16.0654 1.18718 16.8374 0.845206 17.3194 1.28245L23.8275 7.18682C24.1533 7.48241 24.156 7.99365 23.8332 8.29257L17.325 14.3198C16.8449 14.7645 16.0654 14.4239 16.0654 13.7695V9.90762C14.2494 9.95756 12.9559 10.0731 11.7806 10.447C9.50904 11.1696 8.16112 14.2685 7.79763 15.2124C7.73494 15.3752 7.57969 15.4863 7.40525 15.4863C7.18144 15.4863 7.00007 15.305 7.00078 15.0812C7.00207 14.6691 7.00454 14.1955 7.00454 13.8974Z" fill="#FA84D4"/>
</svg>
