<svg width="56" height="87" viewBox="0 0 56 87" fill="none" xmlns="http://www.w3.org/2000/svg">
<path fill-rule="evenodd" clip-rule="evenodd" d="M2.2313 34.7309L11.7266 28.9961C11.045 27.4919 10.5985 25.7291 10.2694 24.0604C8.60614 15.4864 11.0758 6.98234 18.0274 2.76086L8.60068 8.45425C1.62021 12.6613 -0.894634 21.193 0.774098 29.7952C1.07964 31.4404 1.54971 33.2032 2.2313 34.7309ZM39.7421 31.3227L30.2468 37.0575C32.6911 34.5427 33.3962 31.5343 32.7382 28.2203C31.751 23.1671 27.5909 18.4194 21.057 18.631C19.4547 18.6774 18.1047 19.068 17.0298 19.7122L26.4863 14.0008C27.5909 13.3427 28.9306 12.9432 30.5759 12.8962C37.1098 12.6846 41.2698 17.4323 42.257 22.4855C42.8916 25.7995 42.21 28.8079 39.7421 31.3227ZM35.8404 35.4598L26.345 41.1711L30.2701 37.058L39.7419 31.3232L35.8404 35.4598ZM33.5611 61.548L43.0565 55.8367L32.5035 56.1658L32.5033 56.1659C32.4114 55.8661 32.3176 55.5682 32.2235 55.2699C31.8606 54.1185 31.4955 52.9601 31.2342 51.6534C30.106 45.8481 31.2107 40.3719 35.8408 35.4597L26.3455 41.1945C21.7154 46.1067 20.6107 51.5594 21.7389 57.3882C22.0189 58.8959 22.4568 60.226 22.8898 61.5412C22.9293 61.6611 22.9687 61.781 23.008 61.9008L23.0085 61.9006L33.5611 61.548ZM24.1361 29.1844L14.6408 34.8957L2.25458 34.7312L11.7264 28.9964L24.1361 29.1844ZM36.3815 85.4744L45.8663 79.7459C44.9756 80.2827 43.945 80.6093 42.7744 80.6327C38.4733 80.7737 34.3132 77.0367 33.3731 72.1715C32.6695 68.6063 33.932 65.4625 36.3432 64.0014L26.8627 69.7272C24.4419 71.1844 23.1727 74.3338 23.8778 77.9063C24.8179 82.7715 28.978 86.5085 33.2791 86.3675C34.4308 86.3205 35.4884 86.0149 36.3815 85.4744Z" fill="url(#paint0_linear_1_611)"/>
<path d="M28.0616 0.0166586C43.1742 -0.47691 53.1631 10.0761 55.3254 21.1931C57.0177 29.8893 54.3383 36.1882 49.4731 41.0064L46.1122 44.3438C43.2448 47.1877 42.0461 50.6662 42.9392 55.1788L43.0802 55.8369L32.5508 56.166C32.0807 54.7323 31.5871 53.2986 31.2816 51.6533C30.1534 45.8245 31.2581 40.3718 35.8882 35.4596L39.8133 31.3465C42.2576 28.8317 42.9627 25.8232 42.3046 22.5093C41.3175 17.4561 37.1574 12.7084 30.6235 12.92C23.7135 13.1315 21.9038 19.5244 23.1025 25.6822C23.361 26.9984 23.7135 28.2206 24.2071 29.1842L11.8209 29.0197C11.1393 27.492 10.6692 25.7292 10.3637 24.084C7.96635 12.1913 13.6306 0.463221 28.0616 0.0166586Z" fill="url(#paint1_linear_1_611)"/>
<path d="M39.3668 63.1464C43.6444 63.0054 47.922 66.86 48.8621 71.7016C49.8022 76.5668 47.0523 80.5154 42.7512 80.6564C38.4501 80.7974 34.2901 77.0604 33.3499 72.1952C32.4568 67.3535 35.0892 63.2875 39.3668 63.1464Z" fill="url(#paint2_linear_1_611)"/>
<defs>
<linearGradient id="paint0_linear_1_611" x1="27.2046" y1="-1.93565" x2="-14.6005" y2="17.4737" gradientUnits="userSpaceOnUse">
<stop stop-color="#7683F6"/>
<stop offset="1" stop-color="#7683F6" stop-opacity="0"/>
</linearGradient>
<linearGradient id="paint1_linear_1_611" x1="43.7314" y1="4.51437" x2="-2.96337" y2="20.963" gradientUnits="userSpaceOnUse">
<stop stop-color="#9CA5FB"/>
<stop offset="1" stop-color="white"/>
</linearGradient>
<linearGradient id="paint2_linear_1_611" x1="48.8608" y1="62.9791" x2="28.9582" y2="80.9299" gradientUnits="userSpaceOnUse">
<stop stop-color="#9CA5FB"/>
<stop offset="1" stop-color="white"/>
</linearGradient>
</defs>
</svg>
